<svg xmlns="http://www.w3.org/2000/svg" xmlns:xlink="http://www.w3.org/1999/xlink" width="375" viewBox="0 0 375 375" height="375" version="1.0"><defs><clipPath id="a"><path d="M 23.902344 126.390625 L 135.652344 126.390625 L 135.652344 229.140625 L 23.902344 229.140625 Z M 23.902344 126.390625"/></clipPath><clipPath id="b"><path d="M 23.902344 162.140625 L 23.902344 126.402344 L 50.722656 126.402344 L 50.722656 188.941406 Z M 23.902344 184.488281 L 23.902344 166.621094 L 50.722656 193.421875 L 50.722656 211.289062 Z M 23.902344 202.359375 L 23.902344 197.878906 L 50.722656 224.679688 L 50.722656 229.132812 Z M 108.839844 215.742188 L 108.839844 184.488281 L 50.722656 184.488281 L 77.539062 157.65625 L 108.84375 157.65625 L 108.84375 126.402344 L 135.660156 126.402344 L 135.660156 215.742188 Z M 108.839844 215.742188"/></clipPath><linearGradient x1="0" gradientTransform="matrix(.23596 0 0 .23581 23.902 126.404)" xmlns:xlink="http://www.w3.org/1999/xlink" y1="217.81" x2="473.6" gradientUnits="userSpaceOnUse" y2="217.81" xlink:type="simple" xlink:actuate="onLoad" id="c" xlink:show="other"><stop stop-color="#B2802D" offset="0"/><stop stop-color="#B2802D" offset=".125"/><stop stop-color="#B2802D" offset=".188"/><stop stop-color="#B2802D" offset=".219"/><stop stop-color="#B3812E" offset=".223"/><stop stop-color="#B3822E" offset=".227"/><stop stop-color="#B4832F" offset=".23"/><stop stop-color="#B58431" offset=".234"/><stop stop-color="#B58532" offset=".238"/><stop stop-color="#B68633" offset=".242"/><stop stop-color="#B78734" offset=".246"/><stop stop-color="#B88835" offset=".25"/><stop stop-color="#B88936" offset=".254"/><stop stop-color="#B98A37" offset=".258"/><stop stop-color="#BA8B38" offset=".262"/><stop stop-color="#BB8C39" offset=".266"/><stop stop-color="#BC8D3A" offset=".27"/><stop stop-color="#BC8E3B" offset=".273"/><stop stop-color="#BD8F3C" offset=".277"/><stop stop-color="#BE903D" offset=".281"/><stop stop-color="#BF913E" offset=".285"/><stop stop-color="#BF923F" offset=".289"/><stop stop-color="#C09440" offset=".293"/><stop stop-color="#C19542" offset=".297"/><stop stop-color="#C29643" offset=".301"/><stop stop-color="#C29744" offset=".305"/><stop stop-color="#C39845" offset=".309"/><stop stop-color="#C49946" offset=".313"/><stop stop-color="#C59A47" offset=".316"/><stop stop-color="#C69B48" offset=".32"/><stop stop-color="#C69C49" offset=".324"/><stop stop-color="#C79D4A" offset=".328"/><stop stop-color="#C89E4B" offset=".332"/><stop stop-color="#C99F4C" offset=".336"/><stop stop-color="#C9A04D" offset=".34"/><stop stop-color="#CAA14E" offset=".344"/><stop stop-color="#CBA24F" offset=".348"/><stop stop-color="#CCA350" offset=".352"/><stop stop-color="#CCA451" offset=".355"/><stop stop-color="#CDA653" offset=".359"/><stop stop-color="#CEA754" offset=".363"/><stop stop-color="#CFA855" offset=".367"/><stop stop-color="#D0A956" offset=".371"/><stop stop-color="#D0AA57" offset=".375"/><stop stop-color="#D1AB58" offset=".379"/><stop stop-color="#D2AC59" offset=".383"/><stop stop-color="#D3AD5A" offset=".387"/><stop stop-color="#D3AE5B" offset=".391"/><stop stop-color="#D4AF5C" offset=".395"/><stop stop-color="#D5B05D" offset=".398"/><stop stop-color="#D6B15E" offset=".402"/><stop stop-color="#D6B25F" offset=".406"/><stop stop-color="#D7B360" offset=".41"/><stop stop-color="#D8B461" offset=".414"/><stop stop-color="#D9B563" offset=".418"/><stop stop-color="#D9B764" offset=".422"/><stop stop-color="#DAB865" offset=".426"/><stop stop-color="#DBB966" offset=".43"/><stop stop-color="#DCBA67" offset=".434"/><stop stop-color="#DDBB68" offset=".438"/><stop stop-color="#DDBC69" offset=".441"/><stop stop-color="#DEBD6A" offset=".445"/><stop stop-color="#DFBE6B" offset=".449"/><stop stop-color="#E0BF6C" offset=".453"/><stop stop-color="#E0C06D" offset=".457"/><stop stop-color="#E1C16E" offset=".461"/><stop stop-color="#E2C26F" offset=".465"/><stop stop-color="#E3C370" offset=".469"/><stop stop-color="#E3C471" offset=".473"/><stop stop-color="#E4C572" offset=".477"/><stop stop-color="#E5C674" offset=".48"/><stop stop-color="#E6C775" offset=".484"/><stop stop-color="#E7C976" offset=".488"/><stop stop-color="#E7CA77" offset=".492"/><stop stop-color="#E8CB78" offset=".496"/><stop stop-color="#E9CC79" offset=".5"/><stop stop-color="#E9CC79" offset="1"/></linearGradient></defs><path fill="#7F17C8" d="M 92.902344 108.367188 C 54.792969 108.367188 23.902344 139.257812 23.902344 177.367188 C 23.902344 215.476562 54.792969 246.367188 92.902344 246.367188 C 131.011719 246.367188 161.902344 215.476562 161.902344 177.367188 C 161.902344 139.257812 131.011719 108.367188 92.902344 108.367188"/><g clip-path="url(#a)"><g clip-path="url(#b)"><path fill="url(#c)" d="M 23.902344 126.402344 L 23.902344 229.132812 L 135.652344 229.132812 L 135.652344 126.402344 Z M 23.902344 126.402344"/></g></g><g><g><g><path d="M 21.75 -30 L 21.75 -17.949219 L 9.550781 -17.949219 L 9.550781 -30 L 2.949219 -30 L 2.949219 0 L 9.550781 0 L 9.550781 -12.097656 L 21.75 -12.097656 L 21.75 0 L 28.296875 0 L 28.296875 -30 Z M 21.75 -30" transform="translate(168.289 189.381)"/></g></g></g><g><g><g><path d="M 25.25 -5.199219 C 24.398438 -5.199219 23.5 -5.5 23.5 -7.148438 L 23.5 -20 L 17.148438 -20 L 17.148438 -18.25 C 15.648438 -19.597656 13.75 -20.398438 11.449219 -20.398438 C 5.898438 -20.398438 1.550781 -15.800781 1.550781 -10 C 1.550781 -4.199219 5.898438 0.398438 11.449219 0.398438 C 14.347656 0.398438 16.699219 -0.898438 18.300781 -3 C 19.546875 -0.949219 21.75 0.398438 24.449219 0.398438 C 25.097656 0.398438 25.699219 0.199219 26.148438 0 L 26.148438 -5.199219 Z M 12.699219 -5.25 C 10.050781 -5.25 7.949219 -7.347656 7.949219 -10 C 7.949219 -12.648438 10.050781 -14.75 12.699219 -14.75 C 15.300781 -14.75 17.449219 -12.648438 17.449219 -10 C 17.449219 -7.347656 15.300781 -5.25 12.699219 -5.25 Z M 12.699219 -5.25" transform="translate(197.586 189.381)"/></g></g></g><g><g><g><path d="M 2.949219 0 L 9.347656 0 L 9.347656 -34.246094 L 2.949219 -34.246094 Z M 2.949219 0" transform="translate(222.483 189.381)"/></g></g></g><g><g><g><path d="M 12.699219 0.398438 C 18.699219 0.398438 22.796875 -3.101562 23.648438 -8.097656 L 17.050781 -8.097656 C 16.398438 -6.398438 14.75 -5.300781 12.699219 -5.25 C 9.949219 -5.300781 7.949219 -7.300781 7.949219 -10 C 7.949219 -12.699219 9.949219 -14.699219 12.699219 -14.75 C 14.75 -14.699219 16.398438 -13.597656 17.050781 -11.898438 L 23.648438 -11.898438 C 22.796875 -16.898438 18.699219 -20.398438 12.699219 -20.398438 C 6 -20.398438 1.550781 -16 1.550781 -10 C 1.550781 -4 6 0.398438 12.699219 0.398438 Z M 12.699219 0.398438" transform="translate(232.782 189.381)"/></g></g></g><g><g><g><path d="M 16.300781 -20 L 11.398438 -6.75 L 6.398438 -20 L -0.25 -20 L 8.097656 0.449219 L 3.398438 12 L 10.097656 12 L 22.898438 -20 Z M 16.300781 -20" transform="translate(255.58 189.381)"/></g></g></g><g><g><g><path d="M 12.699219 0.398438 C 19.398438 0.398438 23.796875 -4 23.796875 -10 C 23.796875 -16 19.398438 -20.398438 12.699219 -20.398438 C 6 -20.398438 1.550781 -16 1.550781 -10 C 1.550781 -4 6 0.398438 12.699219 0.398438 Z M 12.699219 -5.25 C 9.949219 -5.300781 7.949219 -7.300781 7.949219 -10 C 7.949219 -12.699219 9.949219 -14.699219 12.699219 -14.75 C 15.398438 -14.699219 17.449219 -12.699219 17.449219 -10 C 17.449219 -7.300781 15.398438 -5.300781 12.699219 -5.25 Z M 12.699219 -5.25" transform="translate(276.277 189.381)"/></g></g></g><g><g><g><path d="M 15.050781 -20.398438 C 12.75 -20.398438 10.75 -19.296875 9.347656 -17.550781 L 9.347656 -20 L 2.949219 -20 L 2.949219 0 L 9.347656 0 L 9.347656 -11.597656 C 9.347656 -13.398438 10.847656 -14.75 12.699219 -14.75 C 14.550781 -14.75 15.847656 -13.398438 15.847656 -11.597656 L 15.847656 0 L 22.199219 0 L 22.199219 -12.648438 C 22.199219 -17.050781 19 -20.398438 15.050781 -20.398438 Z M 15.050781 -20.398438" transform="translate(299.675 189.381)"/></g></g></g><g fill="#545454"><g><g><path d="M 15.25 0.398438 C 22.347656 0.398438 27.75 -3.949219 27.75 -9.597656 L 27.75 -30 L 21.148438 -30 L 21.148438 -10.847656 C 21.148438 -7.800781 18.597656 -5.449219 15.25 -5.449219 C 11.949219 -5.449219 9.398438 -7.800781 9.398438 -10.847656 L 9.398438 -30 L 2.800781 -30 L 2.800781 -9.597656 C 2.800781 -3.949219 8.25 0.398438 15.25 0.398438 Z M 15.25 0.398438" transform="translate(322.414 189.381)"/></g></g></g><g fill="#545454"><g><g><path d="M 6.25 -23.347656 C 8.148438 -23.347656 9.75 -24.949219 9.75 -26.847656 C 9.75 -28.796875 8.148438 -30.347656 6.25 -30.347656 C 4.351562 -30.347656 2.75 -28.796875 2.75 -26.847656 C 2.75 -24.949219 4.351562 -23.347656 6.25 -23.347656 Z M 3.050781 0 L 9.398438 0 L 9.398438 -20 L 3.050781 -20 Z M 3.050781 0" transform="translate(350.96 189.381)"/></g></g></g><g fill="#545454"><g><g><path d="M 6.75 0.398438 C 8.75 0.398438 10.449219 -1.25 10.449219 -3.25 C 10.449219 -5.25 8.75 -6.898438 6.75 -6.898438 C 4.800781 -6.898438 3.148438 -5.25 3.148438 -3.25 C 3.148438 -1.25 4.800781 0.398438 6.75 0.398438 Z M 6.75 0.398438" transform="translate(361.46 189.381)"/></g></g></g></svg>