<svg xmlns="http://www.w3.org/2000/svg" width="900" viewBox="0 0 900 471" height="471" version="1.0"><defs><clipPath id="a"><path d="M 200.3125 10.332031 L 693 10.332031 L 693 465.894531 L 200.3125 465.894531 Z M 200.3125 10.332031"/></clipPath><clipPath id="b"><path d="M 241.550781 10.332031 L 688.816406 10.332031 L 688.816406 465.894531 L 241.550781 465.894531 Z M 241.550781 10.332031"/></clipPath><clipPath id="c"><path d="M 200.3125 5 L 680 5 L 680 451 L 200.3125 451 Z M 200.3125 5"/></clipPath><clipPath id="d"><path d="M 236.265625 11.390625 L 693 11.390625 L 693 465.894531 L 236.265625 465.894531 Z M 236.265625 11.390625"/></clipPath><clipPath id="e"><path d="M 293 127 L 699.804688 127 L 699.804688 452 L 293 452 Z M 293 127"/></clipPath></defs><g clip-path="url(#a)"><path fill="#7F17C8" d="M 635.839844 366.554688 L 617.511719 339.003906 L 610.4375 339.003906 C 603.261719 348.570312 595.691406 357.792969 587.792969 366.554688 Z M 274.675781 56.625 C 274.675781 57.042969 274.714844 57.460938 274.773438 57.867188 C 279.324219 54.773438 284.039062 51.84375 288.898438 49.070312 C 287.4375 48.085938 285.683594 47.507812 283.792969 47.507812 C 278.765625 47.507812 274.675781 51.59375 274.675781 56.625 Z M 692.828125 383.027344 L 671.574219 383.027344 L 681.195312 465.894531 L 665.757812 465.894531 L 656.128906 383.027344 L 601.695312 383.027344 L 592.074219 465.894531 L 576.628906 465.894531 L 586.257812 383.027344 L 572.007812 383.027344 C 530.835938 423.328125 482.644531 450.492188 435.40625 450.492188 C 414.289062 450.492188 393.375 446.378906 373.226562 438.972656 L 376.355469 465.894531 L 360.914062 465.894531 L 357.003906 432.222656 C 335.222656 422.101562 314.589844 408.191406 295.867188 391.554688 L 287.230469 465.894531 L 271.789062 465.894531 L 281.414062 383.027344 L 261.328125 383.027344 L 261.328125 366.554688 L 270.949219 366.554688 C 228.199219 318.210938 200.3125 255.390625 200.3125 195.804688 C 200.3125 140.238281 224.5625 97.191406 262.507812 66.90625 C 261.851562 65.550781 261.324219 64.140625 260.9375 62.683594 L 253.996094 61.15625 L 253.996094 52.089844 L 260.9375 50.5625 C 261.480469 48.523438 262.285156 46.574219 263.34375 44.753906 L 259.515625 38.765625 L 265.933594 32.351562 L 271.921875 36.179688 C 273.742188 35.121094 275.6875 34.316406 277.730469 33.777344 L 279.257812 26.832031 L 288.332031 26.832031 L 289.855469 33.777344 C 291.894531 34.316406 293.84375 35.121094 295.667969 36.179688 L 301.65625 32.351562 L 308.070312 38.765625 L 307.605469 39.496094 C 311.050781 37.917969 314.558594 36.414062 318.117188 34.976562 L 318.117188 26.832031 L 341.289062 26.832031 C 359.941406 21.199219 379.625 17.335938 399.800781 15.253906 C 399.78125 15.082031 399.746094 14.914062 399.746094 14.730469 C 399.746094 12.625 401.464844 10.910156 403.570312 10.910156 C 405.621094 10.910156 407.28125 12.53125 407.375 14.554688 C 416.648438 13.804688 426.003906 13.429688 435.40625 13.429688 C 556.132812 13.429688 683.117188 31.667969 683.117188 152.363281 C 683.117188 208.066406 656.0625 275.859375 615.0625 332.71875 L 647.105469 332.71875 L 669.617188 366.554688 L 692.828125 366.554688 Z M 256.621094 18.554688 C 258.730469 18.554688 260.445312 16.839844 260.445312 14.730469 C 260.445312 12.625 258.730469 10.910156 256.621094 10.910156 C 254.511719 10.910156 252.796875 12.625 252.796875 14.730469 C 252.796875 16.839844 254.511719 18.554688 256.621094 18.554688 Z M 550.058594 14.730469 C 550.058594 12.625 551.777344 10.910156 553.882812 10.910156 C 555.992188 10.910156 557.707031 12.625 557.707031 14.730469 C 557.707031 16.839844 555.992188 18.554688 553.882812 18.554688 C 551.777344 18.554688 550.058594 16.839844 550.058594 14.730469"/></g><g clip-path="url(#b)"><path d="M 543.410156 17.496094 C 544.9375 17.496094 546.175781 16.257812 546.175781 14.730469 C 546.175781 13.207031 544.9375 11.96875 543.410156 11.96875 C 541.878906 11.96875 540.640625 13.207031 540.640625 14.730469 C 540.640625 16.257812 541.878906 17.496094 543.410156 17.496094 Z M 605.988281 100.257812 L 618.867188 100.257812 L 618.867188 97.085938 L 605.988281 97.085938 Z M 600.988281 57.464844 L 583.441406 46.988281 L 583.441406 67.949219 Z M 644.839844 86.410156 L 539.589844 86.410156 L 539.589844 31.449219 L 644.839844 31.449219 Z M 624.472656 93.5625 L 615.503906 93.5625 L 615.503906 96.730469 L 624.472656 96.730469 Z M 605.988281 93.5625 L 605.988281 96.730469 L 614.953125 96.730469 L 614.953125 93.5625 Z M 624.472656 90.039062 L 605.988281 90.039062 L 605.988281 93.210938 L 624.472656 93.210938 Z M 328.503906 100.4375 L 317.742188 100.4375 L 317.742188 101.492188 L 328.503906 101.492188 Z M 334.109375 97.964844 L 334.109375 96.910156 L 327.261719 96.910156 L 327.261719 97.964844 Z M 324.589844 96.910156 L 317.742188 96.910156 L 317.742188 97.964844 L 324.589844 97.964844 Z M 334.109375 93.386719 L 317.742188 93.386719 L 317.742188 94.445312 L 334.109375 94.445312 Z M 260.992188 100.4375 L 250.234375 100.4375 L 250.234375 101.492188 L 260.992188 101.492188 Z M 266.597656 97.964844 L 266.597656 96.910156 L 259.75 96.910156 L 259.75 97.964844 Z M 257.082031 96.910156 L 250.234375 96.910156 L 250.234375 97.964844 L 257.082031 97.964844 Z M 266.597656 93.386719 L 250.234375 93.386719 L 250.234375 94.445312 L 266.597656 94.445312 Z M 337.996094 67.613281 L 319.171875 67.613281 L 319.171875 74.199219 L 337.996094 74.199219 Z M 337.996094 38.886719 L 319.171875 38.886719 L 319.171875 45.46875 L 337.996094 45.46875 Z M 246.148438 17.496094 C 247.671875 17.496094 248.910156 16.257812 248.910156 14.730469 C 248.910156 13.207031 247.671875 11.96875 246.148438 11.96875 C 244.621094 11.96875 243.382812 13.207031 243.382812 14.730469 C 243.382812 16.257812 244.621094 17.496094 246.148438 17.496094 Z M 268.046875 56.625 C 268.046875 65.300781 275.109375 72.363281 283.792969 72.363281 C 292.476562 72.363281 299.542969 65.300781 299.542969 56.625 C 299.542969 47.945312 292.476562 40.878906 283.792969 40.878906 C 275.109375 40.878906 268.046875 47.945312 268.046875 56.625 Z M 266.988281 56.625 C 266.988281 47.359375 274.527344 39.824219 283.792969 39.824219 C 293.0625 39.824219 300.597656 47.359375 300.597656 56.625 C 300.597656 65.882812 293.0625 73.421875 283.792969 73.421875 C 274.527344 73.421875 266.988281 65.882812 266.988281 56.625 Z M 467.625 151.453125 C 466.761719 151.453125 465.972656 152.15625 465.867188 153.019531 C 465.753906 153.882812 466.371094 154.578125 467.234375 154.578125 C 468.097656 154.578125 468.886719 153.882812 468.992188 153.019531 C 469.101562 152.15625 468.488281 151.453125 467.625 151.453125 Z M 512.507812 151.957031 L 496.765625 151.957031 C 496.183594 151.957031 495.707031 152.433594 495.707031 153.015625 C 495.707031 153.601562 496.183594 154.070312 496.765625 154.070312 L 512.507812 154.070312 C 513.09375 154.070312 513.566406 153.601562 513.566406 153.015625 C 513.566406 152.433594 513.09375 151.957031 512.507812 151.957031 Z M 393.097656 18.554688 C 395.203125 18.554688 396.921875 16.839844 396.921875 14.730469 C 396.921875 12.625 395.203125 10.910156 393.097656 10.910156 C 390.992188 10.910156 389.277344 12.625 389.277344 14.730469 C 389.277344 16.839844 390.992188 18.554688 393.097656 18.554688 Z M 421.613281 89.65625 C 421.613281 91.324219 422.972656 92.683594 424.640625 92.683594 L 447.539062 92.683594 C 449.207031 92.683594 450.566406 91.324219 450.566406 89.65625 C 450.566406 87.988281 449.207031 86.632812 447.539062 86.632812 L 424.640625 86.632812 C 422.972656 86.632812 421.613281 87.988281 421.613281 89.65625 Z M 400.671875 74.289062 L 423.574219 74.289062 C 425.242188 74.289062 426.601562 72.933594 426.601562 71.261719 C 426.601562 69.59375 425.242188 68.238281 423.574219 68.238281 L 400.671875 68.238281 C 399.003906 68.238281 397.644531 69.59375 397.644531 71.261719 C 397.644531 72.933594 399.003906 74.289062 400.671875 74.289062 Z M 400.671875 55.894531 L 440.351562 55.894531 C 442.019531 55.894531 443.375 54.535156 443.375 52.867188 C 443.375 51.199219 442.019531 49.84375 440.351562 49.84375 L 400.671875 49.84375 C 399.003906 49.84375 397.644531 51.199219 397.644531 52.867188 C 397.644531 54.535156 399.003906 55.894531 400.671875 55.894531 Z M 448.003906 74.289062 L 456.101562 74.289062 C 457.769531 74.289062 459.125 72.933594 459.125 71.261719 C 459.125 69.59375 457.769531 68.238281 456.101562 68.238281 L 448.003906 68.238281 C 446.332031 68.238281 444.972656 69.59375 444.972656 71.261719 C 444.972656 72.933594 446.332031 74.289062 448.003906 74.289062 Z M 439.746094 74.289062 C 441.414062 74.289062 442.773438 72.933594 442.773438 71.261719 C 442.773438 69.59375 441.414062 68.238281 439.746094 68.238281 L 431.648438 68.238281 C 429.980469 68.238281 428.621094 69.59375 428.621094 71.261719 C 428.621094 72.933594 429.980469 74.289062 431.648438 74.289062 Z M 400.671875 46.699219 L 408.773438 46.699219 C 410.441406 46.699219 411.800781 45.339844 411.800781 43.671875 C 411.800781 42.003906 410.441406 40.644531 408.773438 40.644531 L 400.671875 40.644531 C 399.003906 40.644531 397.644531 42.003906 397.644531 43.671875 C 397.644531 45.339844 399.003906 46.699219 400.671875 46.699219 Z M 400.671875 37.5 L 427.945312 37.5 C 429.613281 37.5 430.972656 36.144531 430.972656 34.476562 C 430.972656 32.808594 429.613281 31.449219 427.945312 31.449219 L 400.671875 31.449219 C 399.003906 31.449219 397.644531 32.808594 397.644531 34.476562 C 397.644531 36.144531 399.003906 37.5 400.671875 37.5 Z M 459.570312 437.207031 L 267.117188 437.207031 C 259.191406 437.207031 252.765625 443.625 252.765625 451.550781 C 252.765625 459.472656 259.191406 465.894531 267.117188 465.894531 L 459.570312 465.894531 C 467.496094 465.894531 473.921875 459.472656 473.921875 451.550781 C 473.921875 443.625 467.496094 437.207031 459.570312 437.207031 Z M 681.605469 137.519531 C 681.605469 136.9375 681.128906 136.460938 680.546875 136.460938 L 628.558594 136.460938 C 627.972656 136.460938 627.503906 136.9375 627.503906 137.519531 C 627.503906 138.105469 627.972656 138.574219 628.558594 138.574219 L 680.546875 138.574219 C 681.128906 138.574219 681.605469 138.105469 681.605469 137.519531 Z M 657.179688 154.070312 L 666.09375 154.070312 C 666.675781 154.070312 667.148438 153.601562 667.148438 153.015625 C 667.148438 152.433594 666.675781 151.957031 666.09375 151.957031 L 657.179688 151.957031 C 656.597656 151.957031 656.121094 152.433594 656.121094 153.015625 C 656.121094 153.601562 656.597656 154.070312 657.179688 154.070312 Z M 678.140625 159.921875 C 678.140625 159.339844 677.664062 158.863281 677.082031 158.863281 L 656.3125 158.863281 C 655.730469 158.863281 655.253906 159.339844 655.253906 159.921875 C 655.253906 160.503906 655.730469 160.980469 656.3125 160.980469 L 677.082031 160.980469 C 677.664062 160.980469 678.140625 160.503906 678.140625 159.921875 Z M 655.445312 167.886719 L 666.109375 167.886719 C 666.695312 167.886719 667.167969 167.410156 667.167969 166.828125 C 667.167969 166.242188 666.695312 165.773438 666.109375 165.773438 L 655.445312 165.773438 C 654.863281 165.773438 654.386719 166.242188 654.386719 166.828125 C 654.386719 167.410156 654.863281 167.886719 655.445312 167.886719 Z M 649.195312 211.949219 C 648.609375 211.949219 648.136719 212.421875 648.136719 213.007812 C 648.136719 213.589844 648.609375 214.066406 649.195312 214.066406 L 658.105469 214.066406 C 658.6875 214.066406 659.160156 213.589844 659.160156 213.007812 C 659.160156 212.421875 658.6875 211.949219 658.105469 211.949219 Z M 670.152344 219.910156 C 670.152344 219.328125 669.675781 218.855469 669.09375 218.855469 L 648.324219 218.855469 C 647.742188 218.855469 647.265625 219.328125 647.265625 219.910156 C 647.265625 220.496094 647.742188 220.96875 648.324219 220.96875 L 669.09375 220.96875 C 669.675781 220.96875 670.152344 220.496094 670.152344 219.910156 Z M 659.179688 226.820312 C 659.179688 226.234375 658.707031 225.761719 658.121094 225.761719 L 647.457031 225.761719 C 646.875 225.761719 646.398438 226.234375 646.398438 226.820312 C 646.398438 227.402344 646.875 227.875 647.457031 227.875 L 658.121094 227.875 C 658.707031 227.875 659.179688 227.402344 659.179688 226.820312 Z M 636.417969 160.71875 C 636.417969 160.136719 635.949219 159.660156 635.363281 159.660156 L 617.546875 159.660156 C 616.960938 159.660156 616.492188 160.136719 616.492188 160.71875 C 616.492188 161.304688 616.960938 161.777344 617.546875 161.777344 L 635.363281 161.777344 C 635.949219 161.777344 636.417969 161.304688 636.417969 160.71875 Z M 627.5 174.535156 C 627.5 173.949219 627.027344 173.476562 626.441406 173.476562 L 610.875 173.476562 C 610.292969 173.476562 609.816406 173.949219 609.816406 174.535156 C 609.816406 175.117188 610.292969 175.589844 610.875 175.589844 L 626.441406 175.589844 C 627.027344 175.589844 627.5 175.117188 627.5 174.535156 Z M 623.777344 261.285156 C 623.777344 260.703125 623.304688 260.226562 622.71875 260.226562 L 594.691406 260.226562 C 594.109375 260.226562 593.632812 260.703125 593.632812 261.285156 C 593.632812 261.867188 594.109375 262.339844 594.691406 262.339844 L 622.71875 262.339844 C 623.304688 262.339844 623.777344 261.867188 623.777344 261.285156 Z M 544.257812 145.3125 L 466.953125 145.3125 C 464.03125 145.3125 461.367188 147.679688 461 150.597656 L 459.726562 160.71875 L 547.609375 160.71875 L 548.882812 150.597656 C 549.25 147.679688 547.179688 145.3125 544.257812 145.3125 Z M 535.398438 224.773438 C 535.398438 224.1875 534.925781 223.71875 534.34375 223.71875 L 524.910156 223.71875 C 524.328125 223.71875 523.851562 224.1875 523.851562 224.773438 C 523.851562 225.359375 524.328125 225.832031 524.910156 225.832031 L 534.34375 225.832031 C 534.925781 225.832031 535.398438 225.359375 535.398438 224.773438 Z M 512.644531 229.851562 C 512.644531 229.261719 512.171875 228.792969 511.589844 228.792969 L 502.753906 228.792969 C 502.171875 228.792969 501.695312 229.261719 501.695312 229.851562 C 501.695312 230.433594 502.171875 230.90625 502.753906 230.90625 L 511.589844 230.90625 C 512.171875 230.90625 512.644531 230.433594 512.644531 229.851562 Z M 494.359375 224.773438 C 494.359375 224.1875 493.886719 223.71875 493.304688 223.71875 L 483.871094 223.71875 C 483.285156 223.71875 482.8125 224.1875 482.8125 224.773438 C 482.8125 225.359375 483.285156 225.832031 483.871094 225.832031 L 493.304688 225.832031 C 493.886719 225.832031 494.359375 225.359375 494.359375 224.773438 Z M 468.671875 265.625 L 460.617188 265.625 C 459.503906 265.625 458.492188 266.523438 458.351562 267.632812 C 458.214844 268.742188 459 269.640625 460.113281 269.640625 L 468.167969 269.640625 C 469.273438 269.640625 470.289062 268.742188 470.429688 267.632812 C 470.566406 266.523438 469.78125 265.625 468.671875 265.625 Z M 460.402344 251.859375 C 461.265625 251.859375 462.050781 251.160156 462.160156 250.296875 C 462.269531 249.433594 461.65625 248.730469 460.792969 248.730469 C 459.929688 248.730469 459.140625 249.433594 459.035156 250.296875 C 458.921875 251.160156 459.539062 251.859375 460.402344 251.859375 Z M 459.476562 229.851562 C 459.476562 230.433594 459.945312 230.90625 460.535156 230.90625 L 467.023438 230.90625 C 467.605469 230.90625 468.078125 230.433594 468.078125 229.851562 C 468.078125 229.261719 467.605469 228.792969 467.023438 228.792969 L 460.535156 228.792969 C 459.945312 228.792969 459.476562 229.261719 459.476562 229.851562 Z M 500.988281 174.535156 C 500.988281 173.949219 500.519531 173.476562 499.933594 173.476562 L 479.960938 173.476562 C 479.378906 173.476562 478.90625 173.949219 478.90625 174.535156 C 478.90625 175.117188 479.378906 175.589844 479.960938 175.589844 L 499.933594 175.589844 C 500.519531 175.589844 500.988281 175.117188 500.988281 174.535156 Z M 568.648438 288.90625 C 568.648438 289.492188 569.121094 289.964844 569.707031 289.964844 L 610.136719 289.964844 C 610.726562 289.964844 611.195312 289.492188 611.195312 288.90625 C 611.195312 288.324219 610.726562 287.847656 610.136719 287.847656 L 569.707031 287.847656 C 569.121094 287.847656 568.648438 288.324219 568.648438 288.90625 Z M 577.820312 215.96875 C 577.820312 216.550781 578.292969 217.023438 578.875 217.023438 L 589.539062 217.023438 C 590.121094 217.023438 590.597656 216.550781 590.597656 215.96875 C 590.597656 215.382812 590.121094 214.910156 589.539062 214.910156 L 578.875 214.910156 C 578.292969 214.910156 577.820312 215.382812 577.820312 215.96875 Z M 581.292969 188.34375 C 581.292969 188.925781 581.765625 189.402344 582.347656 189.402344 L 595.199219 189.402344 C 595.785156 189.402344 596.257812 188.925781 596.257812 188.34375 C 596.257812 187.757812 595.785156 187.289062 595.199219 187.289062 L 582.347656 187.289062 C 581.765625 187.289062 581.292969 187.757812 581.292969 188.34375 Z M 583.894531 167.625 C 583.894531 168.207031 584.371094 168.683594 584.953125 168.683594 L 593.859375 168.683594 C 594.449219 168.683594 594.917969 168.207031 594.917969 167.625 C 594.917969 167.042969 594.449219 166.570312 593.859375 166.570312 L 584.953125 166.570312 C 584.371094 166.570312 583.894531 167.042969 583.894531 167.625 Z M 619.300781 188.34375 C 619.300781 187.757812 618.824219 187.289062 618.242188 187.289062 L 599.820312 187.289062 C 599.238281 187.289062 598.761719 187.757812 598.761719 188.34375 C 598.761719 188.925781 599.238281 189.402344 599.820312 189.402344 L 618.242188 189.402344 C 618.824219 189.402344 619.300781 188.925781 619.300781 188.34375 Z M 622.101562 210.117188 C 622.6875 210.117188 623.15625 209.648438 623.15625 209.058594 C 623.15625 208.476562 622.6875 208.003906 622.101562 208.003906 L 606.53125 208.003906 C 605.949219 208.003906 605.476562 208.476562 605.476562 209.058594 C 605.476562 209.648438 605.949219 210.117188 606.53125 210.117188 Z M 688.351562 141.042969 L 671.972656 288.714844 C 671.492188 293.078125 667.808594 296.367188 663.417969 296.367188 L 434.082031 296.367188 C 431.601562 296.367188 429.324219 295.351562 427.671875 293.507812 C 427.34375 293.136719 427.0625 292.746094 426.804688 292.339844 C 424.421875 309.257812 413.011719 328.347656 413.011719 343.230469 C 413.011719 359.578125 425.476562 383.027344 425.476562 383.027344 C 425.476562 383.027344 421.050781 419.628906 376.148438 419.628906 C 359.914062 419.628906 348.457031 416.785156 342.5625 414.859375 C 339.503906 413.859375 337.246094 411.289062 336.558594 408.144531 C 331.335938 384.457031 334.875 350.828125 338.554688 339.003906 C 341.046875 331.007812 338.117188 290.066406 328.515625 260.878906 C 323.613281 245.988281 334.707031 230.667969 350.386719 230.667969 L 354.097656 218.855469 C 354.097656 218.855469 365.90625 213.148438 378.386719 215.683594 C 390.863281 218.222656 396.824219 221.648438 401.472656 222.300781 L 398.457031 230.734375 C 403.605469 231.183594 408.207031 234.246094 410.5625 238.917969 C 415.636719 249 423.710938 266.320312 426.359375 279.335938 L 441.90625 139.148438 C 442.390625 134.785156 446.066406 131.492188 450.460938 131.492188 L 679.796875 131.492188 C 682.273438 131.492188 684.554688 132.515625 686.207031 134.359375 C 687.863281 136.203125 688.625 138.578125 688.351562 141.042969 Z M 473.542969 151.453125 C 472.683594 151.453125 471.894531 152.15625 471.785156 153.019531 C 471.675781 153.882812 472.289062 154.578125 473.152344 154.578125 C 474.015625 154.578125 474.804688 153.882812 474.910156 153.019531 C 475.023438 152.15625 474.410156 151.453125 473.542969 151.453125 Z M 479.46875 151.453125 C 478.605469 151.453125 477.816406 152.15625 477.707031 153.019531 C 477.601562 153.882812 478.210938 154.578125 479.074219 154.578125 C 479.9375 154.578125 480.726562 153.882812 480.835938 153.019531 C 480.941406 152.15625 480.332031 151.453125 479.46875 151.453125 Z M 317.410156 146.625 L 304.820312 146.625 L 304.820312 174.070312 L 317.410156 174.070312 Z M 273.238281 174.070312 L 285.828125 174.070312 L 285.828125 150.429688 L 273.238281 150.429688 Z M 254.246094 174.070312 L 241.660156 174.070312 L 241.660156 158.675781 L 254.246094 158.675781 L 254.246094 174.070312"/></g><g clip-path="url(#c)"><path fill="#E0ECF1" d="M 283.792969 66.796875 C 289.414062 66.796875 293.96875 62.242188 293.96875 56.625 C 293.96875 51.003906 289.414062 46.449219 283.792969 46.449219 C 278.175781 46.449219 273.621094 51.003906 273.621094 56.625 C 273.621094 62.242188 278.175781 66.796875 283.792969 66.796875 Z M 253.855469 14.730469 C 253.855469 16.257812 255.09375 17.496094 256.621094 17.496094 C 258.152344 17.496094 259.386719 16.257812 259.386719 14.730469 C 259.386719 13.207031 258.152344 11.96875 256.621094 11.96875 C 255.09375 11.96875 253.855469 13.207031 253.855469 14.730469 Z M 260.863281 38.914062 L 264.589844 44.734375 C 263.316406 46.78125 262.371094 49.042969 261.804688 51.453125 L 255.054688 52.9375 L 255.054688 60.304688 L 261.804688 61.792969 C 262.371094 64.203125 263.316406 66.46875 264.589844 68.511719 L 260.863281 74.332031 L 266.078125 79.542969 L 271.90625 75.824219 C 273.949219 77.089844 276.207031 78.035156 278.621094 78.601562 L 280.109375 85.351562 L 287.480469 85.351562 L 288.96875 78.601562 C 291.375 78.035156 293.640625 77.089844 295.683594 75.824219 L 301.511719 79.542969 L 306.722656 74.332031 L 303 68.511719 C 304.265625 66.46875 305.214844 64.203125 305.78125 61.792969 L 312.535156 60.304688 L 312.535156 52.9375 L 305.78125 51.453125 C 305.214844 49.042969 304.265625 46.78125 303 44.734375 L 306.722656 38.914062 L 301.511719 33.699219 L 295.683594 37.425781 C 293.640625 36.15625 291.375 35.207031 288.96875 34.644531 L 287.480469 27.890625 L 280.109375 27.890625 L 278.621094 34.644531 C 276.207031 35.207031 273.949219 36.15625 271.90625 37.425781 L 266.078125 33.699219 Z M 319.171875 63.203125 L 347.933594 63.203125 L 347.933594 56.625 L 319.171875 56.625 Z M 319.171875 34.476562 L 347.933594 34.476562 L 347.933594 27.890625 L 319.171875 27.890625 Z M 289.101562 93.386719 L 272.734375 93.386719 L 272.734375 94.445312 L 289.101562 94.445312 Z M 289.101562 96.910156 L 282.25 96.910156 L 282.25 97.964844 L 289.101562 97.964844 Z M 279.582031 97.964844 L 279.582031 96.910156 L 272.734375 96.910156 L 272.734375 97.964844 Z M 283.5 100.4375 L 272.734375 100.4375 L 272.734375 101.492188 L 283.5 101.492188 Z M 360.597656 87.160156 L 379.722656 87.160156 L 379.722656 57.996094 L 360.597656 57.996094 Z M 360.597656 56.9375 L 379.722656 56.9375 L 379.722656 27.773438 L 360.597656 27.773438 Z M 390.335938 89.65625 C 390.335938 90.746094 391.214844 91.625 392.300781 91.625 L 392.484375 91.625 C 393.578125 91.625 394.457031 90.746094 394.457031 89.65625 C 394.457031 88.570312 393.578125 87.691406 392.484375 87.691406 L 392.300781 87.691406 C 391.214844 87.691406 390.335938 88.570312 390.335938 89.65625 Z M 390.335938 80.460938 C 390.335938 81.546875 391.214844 82.429688 392.300781 82.429688 L 392.484375 82.429688 C 393.578125 82.429688 394.457031 81.546875 394.457031 80.460938 C 394.457031 79.375 393.578125 78.492188 392.484375 78.492188 L 392.300781 78.492188 C 391.214844 78.492188 390.335938 79.375 390.335938 80.460938 Z M 390.335938 71.265625 C 390.335938 72.351562 391.214844 73.230469 392.300781 73.230469 L 392.484375 73.230469 C 393.578125 73.230469 394.457031 72.351562 394.457031 71.265625 C 394.457031 70.175781 393.578125 69.296875 392.484375 69.296875 L 392.300781 69.296875 C 391.214844 69.296875 390.335938 70.175781 390.335938 71.265625 Z M 390.335938 62.066406 C 390.335938 63.152344 391.214844 64.035156 392.300781 64.035156 L 392.484375 64.035156 C 393.578125 64.035156 394.457031 63.152344 394.457031 62.066406 C 394.457031 60.980469 393.578125 60.097656 392.484375 60.097656 L 392.300781 60.097656 C 391.214844 60.097656 390.335938 60.980469 390.335938 62.066406 Z M 390.335938 52.867188 C 390.335938 53.957031 391.214844 54.835938 392.300781 54.835938 L 392.484375 54.835938 C 393.578125 54.835938 394.457031 53.957031 394.457031 52.867188 C 394.457031 51.78125 393.578125 50.902344 392.484375 50.902344 L 392.300781 50.902344 C 391.214844 50.902344 390.335938 51.78125 390.335938 52.867188 Z M 390.335938 43.671875 C 390.335938 44.757812 391.214844 45.640625 392.300781 45.640625 L 392.484375 45.640625 C 393.578125 45.640625 394.457031 44.757812 394.457031 43.671875 C 394.457031 42.585938 393.578125 41.703125 392.484375 41.703125 L 392.300781 41.703125 C 391.214844 41.703125 390.335938 42.585938 390.335938 43.671875 Z M 390.335938 34.476562 C 390.335938 35.5625 391.214844 36.441406 392.300781 36.441406 L 392.484375 36.441406 C 393.578125 36.441406 394.457031 35.5625 394.457031 34.476562 C 394.457031 33.386719 393.578125 32.507812 392.484375 32.507812 L 392.300781 32.507812 C 391.214844 32.507812 390.335938 33.386719 390.335938 34.476562 Z M 390.335938 25.277344 C 390.335938 26.363281 391.214844 27.246094 392.300781 27.246094 L 392.484375 27.246094 C 393.578125 27.246094 394.457031 26.363281 394.457031 25.277344 C 394.457031 24.191406 393.578125 23.308594 392.484375 23.308594 L 392.300781 23.308594 C 391.214844 23.308594 390.335938 24.191406 390.335938 25.277344 Z M 390.335938 14.730469 C 390.335938 16.257812 391.570312 17.496094 393.097656 17.496094 C 394.625 17.496094 395.863281 16.257812 395.863281 14.730469 C 395.863281 13.207031 394.625 11.96875 393.097656 11.96875 C 391.570312 11.96875 390.335938 13.207031 390.335938 14.730469 Z M 398.703125 89.65625 C 398.703125 90.746094 399.585938 91.625 400.671875 91.625 L 417.371094 91.625 C 418.457031 91.625 419.339844 90.746094 419.339844 89.65625 C 419.339844 88.570312 418.457031 87.691406 417.371094 87.691406 L 400.671875 87.691406 C 399.585938 87.691406 398.703125 88.570312 398.703125 89.65625 Z M 398.703125 80.460938 C 398.703125 81.546875 399.585938 82.429688 400.671875 82.429688 L 436.402344 82.429688 C 437.492188 82.429688 438.375 81.546875 438.375 80.460938 C 438.375 79.375 437.492188 78.492188 436.402344 78.492188 L 400.671875 78.492188 C 399.585938 78.492188 398.703125 79.375 398.703125 80.460938 Z M 398.703125 71.265625 C 398.703125 72.351562 399.585938 73.230469 400.671875 73.230469 L 423.574219 73.230469 C 424.660156 73.230469 425.546875 72.351562 425.546875 71.265625 C 425.546875 70.175781 424.660156 69.296875 423.574219 69.296875 L 400.671875 69.296875 C 399.585938 69.296875 398.703125 70.175781 398.703125 71.265625 Z M 398.703125 62.066406 C 398.703125 63.152344 399.585938 64.035156 400.671875 64.035156 L 430.90625 64.035156 C 431.992188 64.035156 432.871094 63.152344 432.871094 62.066406 C 432.871094 60.980469 431.992188 60.097656 430.90625 60.097656 L 400.671875 60.097656 C 399.585938 60.097656 398.703125 60.980469 398.703125 62.066406 Z M 398.703125 52.867188 C 398.703125 53.957031 399.585938 54.835938 400.671875 54.835938 L 440.351562 54.835938 C 441.4375 54.835938 442.320312 53.957031 442.320312 52.867188 C 442.320312 51.78125 441.4375 50.902344 440.351562 50.902344 L 400.671875 50.902344 C 399.585938 50.902344 398.703125 51.78125 398.703125 52.867188 Z M 398.703125 43.671875 C 398.703125 44.757812 399.585938 45.640625 400.671875 45.640625 L 408.773438 45.640625 C 409.859375 45.640625 410.742188 44.757812 410.742188 43.671875 C 410.742188 42.585938 409.859375 41.703125 408.773438 41.703125 L 400.671875 41.703125 C 399.585938 41.703125 398.703125 42.585938 398.703125 43.671875 Z M 398.703125 34.476562 C 398.703125 35.5625 399.585938 36.441406 400.671875 36.441406 L 427.945312 36.441406 C 429.03125 36.441406 429.914062 35.5625 429.914062 34.476562 C 429.914062 33.386719 429.03125 32.507812 427.945312 32.507812 L 400.671875 32.507812 C 399.585938 32.507812 398.703125 33.386719 398.703125 34.476562 Z M 398.703125 25.277344 C 398.703125 26.363281 399.585938 27.246094 400.671875 27.246094 L 413.195312 27.246094 C 414.28125 27.246094 415.160156 26.363281 415.160156 25.277344 C 415.160156 24.191406 414.28125 23.308594 413.195312 23.308594 L 400.671875 23.308594 C 399.585938 23.308594 398.703125 24.191406 398.703125 25.277344 Z M 400.804688 14.730469 C 400.804688 16.257812 402.042969 17.496094 403.570312 17.496094 C 405.101562 17.496094 406.339844 16.257812 406.339844 14.730469 C 406.339844 13.207031 405.101562 11.96875 403.570312 11.96875 C 402.042969 11.96875 400.804688 13.207031 400.804688 14.730469 Z M 458.210938 41.703125 L 418.53125 41.703125 C 417.445312 41.703125 416.566406 42.585938 416.566406 43.671875 C 416.566406 44.757812 417.445312 45.640625 418.53125 45.640625 L 458.210938 45.640625 C 459.296875 45.640625 460.183594 44.757812 460.183594 43.671875 C 460.183594 42.585938 459.296875 41.703125 458.210938 41.703125 Z M 459.054688 52.867188 C 459.054688 51.78125 458.175781 50.902344 457.089844 50.902344 L 448.988281 50.902344 C 447.902344 50.902344 447.019531 51.78125 447.019531 52.867188 C 447.019531 53.957031 447.902344 54.835938 448.988281 54.835938 L 457.089844 54.835938 C 458.175781 54.835938 459.054688 53.957031 459.054688 52.867188 Z M 458.066406 71.265625 C 458.066406 70.175781 457.1875 69.296875 456.101562 69.296875 L 448.003906 69.296875 C 446.914062 69.296875 446.03125 70.175781 446.03125 71.265625 C 446.03125 72.351562 446.914062 73.230469 448.003906 73.230469 L 456.101562 73.230469 C 457.1875 73.230469 458.066406 72.351562 458.066406 71.265625 Z M 441.714844 71.265625 C 441.714844 70.175781 440.835938 69.296875 439.746094 69.296875 L 431.644531 69.296875 C 430.558594 69.296875 429.679688 70.175781 429.679688 71.265625 C 429.679688 72.351562 430.558594 73.230469 431.644531 73.230469 L 439.746094 73.230469 C 440.835938 73.230469 441.714844 72.351562 441.714844 71.265625 Z M 449.507812 89.65625 C 449.507812 88.570312 448.628906 87.691406 447.539062 87.691406 L 424.640625 87.691406 C 423.550781 87.691406 422.671875 88.570312 422.671875 89.65625 C 422.671875 90.746094 423.550781 91.625 424.640625 91.625 L 447.539062 91.625 C 448.628906 91.625 449.507812 90.746094 449.507812 89.65625 Z M 503.707031 87.160156 L 528.742188 87.160156 L 528.742188 57.996094 L 503.707031 57.996094 Z M 503.707031 56.9375 L 528.742188 56.9375 L 528.742188 27.773438 L 503.707031 27.773438 Z M 540.640625 85.351562 L 643.785156 85.351562 L 643.785156 32.507812 L 540.640625 32.507812 Z M 551.117188 14.730469 C 551.117188 16.257812 552.355469 17.496094 553.882812 17.496094 C 555.410156 17.496094 556.652344 16.257812 556.652344 14.730469 C 556.652344 13.207031 555.410156 11.96875 553.882812 11.96875 C 552.355469 11.96875 551.117188 13.207031 551.117188 14.730469 Z M 623.414062 91.097656 L 607.042969 91.097656 L 607.042969 92.152344 L 623.414062 92.152344 Z M 623.414062 94.617188 L 616.5625 94.617188 L 616.5625 95.675781 L 623.414062 95.675781 Z M 613.898438 95.675781 L 613.898438 94.617188 L 607.042969 94.617188 L 607.042969 95.675781 Z M 617.808594 98.144531 L 607.042969 98.144531 L 607.042969 99.203125 L 617.808594 99.203125 Z M 589.578125 91.097656 L 573.210938 91.097656 L 573.210938 92.152344 L 589.578125 92.152344 Z M 589.578125 94.617188 L 582.726562 94.617188 L 582.726562 95.675781 L 589.578125 95.675781 Z M 580.0625 95.675781 L 580.0625 94.617188 L 573.210938 94.617188 L 573.210938 95.675781 Z M 583.972656 98.144531 L 573.210938 98.144531 L 573.210938 99.203125 L 583.972656 99.203125 Z M 236.613281 108.503906 L 236.613281 10.332031 C 236.613281 7.414062 238.976562 5.046875 241.898438 5.046875 L 355.308594 5.046875 C 358.230469 5.046875 360.597656 7.414062 360.597656 10.332031 L 360.597656 26.71875 L 379.722656 26.71875 L 379.722656 10.332031 C 379.722656 7.414062 382.089844 5.046875 385.011719 5.046875 L 498.421875 5.046875 C 501.339844 5.046875 503.707031 7.414062 503.707031 10.332031 L 503.707031 26.71875 L 528.742188 26.71875 L 528.742188 10.332031 C 528.742188 7.414062 531.109375 5.046875 534.027344 5.046875 L 647.433594 5.046875 C 650.359375 5.046875 652.722656 7.414062 652.722656 10.332031 L 652.722656 87.160156 L 666.386719 87.160156 C 666.601562 87.507812 666.796875 87.867188 667.003906 88.21875 L 652.722656 88.21875 L 652.722656 108.503906 C 652.722656 111.421875 650.359375 113.789062 647.433594 113.789062 L 534.027344 113.789062 C 531.109375 113.789062 528.742188 111.421875 528.742188 108.503906 L 528.742188 88.21875 L 503.707031 88.21875 L 503.707031 97.507812 C 503.707031 100.425781 501.339844 102.792969 498.421875 102.792969 L 385.011719 102.792969 C 382.089844 102.792969 379.722656 100.425781 379.722656 97.507812 L 379.722656 88.21875 L 360.597656 88.21875 L 360.597656 108.503906 C 360.597656 111.421875 358.230469 113.789062 355.308594 113.789062 L 241.898438 113.789062 C 238.976562 113.789062 236.613281 111.421875 236.613281 108.503906 Z M 600.644531 136.460938 C 600.058594 136.460938 599.585938 136.9375 599.585938 137.519531 C 599.585938 138.105469 600.058594 138.574219 600.644531 138.574219 L 622 138.574219 C 622.585938 138.574219 623.058594 138.105469 623.058594 137.519531 C 623.058594 136.9375 622.585938 136.460938 622 136.460938 Z M 623.777344 261.285156 C 623.777344 260.703125 623.304688 260.226562 622.71875 260.226562 L 594.691406 260.226562 C 594.109375 260.226562 593.632812 260.703125 593.632812 261.285156 C 593.632812 261.867188 594.109375 262.339844 594.691406 262.339844 L 622.71875 262.339844 C 623.304688 262.339844 623.777344 261.867188 623.777344 261.285156 Z M 612.0625 282.003906 C 612.0625 281.417969 611.59375 280.945312 611.007812 280.945312 L 570.574219 280.945312 C 569.992188 280.945312 569.515625 281.417969 569.515625 282.003906 C 569.515625 282.585938 569.992188 283.058594 570.574219 283.058594 L 611.007812 283.058594 C 611.59375 283.058594 612.0625 282.585938 612.0625 282.003906 Z M 611.195312 288.90625 C 611.195312 288.324219 610.726562 287.847656 610.136719 287.847656 L 569.707031 287.847656 C 569.121094 287.847656 568.648438 288.324219 568.648438 288.90625 C 568.648438 289.492188 569.121094 289.964844 569.707031 289.964844 L 610.136719 289.964844 C 610.726562 289.964844 611.195312 289.492188 611.195312 288.90625 Z M 571.25 268.1875 C 571.25 268.773438 571.726562 269.246094 572.308594 269.246094 L 604.984375 269.246094 C 605.566406 269.246094 606.042969 268.773438 606.042969 268.1875 C 606.042969 267.605469 605.566406 267.128906 604.984375 267.128906 L 572.308594 267.128906 C 571.726562 267.128906 571.25 267.605469 571.25 268.1875 Z M 572.121094 261.285156 C 572.121094 261.867188 572.59375 262.339844 573.179688 262.339844 L 587.195312 262.339844 C 587.777344 262.339844 588.25 261.867188 588.25 261.285156 C 588.25 260.703125 587.777344 260.226562 587.195312 260.226562 L 573.179688 260.226562 C 572.59375 260.226562 572.121094 260.703125 572.121094 261.285156 Z M 572.992188 254.378906 C 572.992188 254.960938 573.460938 255.4375 574.046875 255.4375 L 614.480469 255.4375 C 615.066406 255.4375 615.535156 254.960938 615.535156 254.378906 C 615.535156 253.792969 615.066406 253.324219 614.480469 253.324219 L 574.046875 253.324219 C 573.460938 253.324219 572.992188 253.792969 572.992188 254.378906 Z M 565.207031 254.378906 C 565.207031 253.792969 564.734375 253.324219 564.152344 253.324219 L 557.101562 253.324219 C 556.519531 253.324219 556.042969 253.792969 556.042969 254.378906 C 556.042969 254.960938 556.519531 255.4375 557.101562 255.4375 L 564.152344 255.4375 C 564.734375 255.4375 565.207031 254.960938 565.207031 254.378906 Z M 564.335938 261.285156 C 564.335938 260.703125 563.867188 260.226562 563.28125 260.226562 L 556.234375 260.226562 C 555.648438 260.226562 555.175781 260.703125 555.175781 261.285156 C 555.175781 261.867188 555.648438 262.339844 556.234375 262.339844 L 563.28125 262.339844 C 563.867188 262.339844 564.335938 261.867188 564.335938 261.285156 Z M 563.46875 268.1875 C 563.46875 267.605469 563 267.128906 562.414062 267.128906 L 555.363281 267.128906 C 554.78125 267.128906 554.304688 267.605469 554.304688 268.1875 C 554.304688 268.773438 554.78125 269.246094 555.363281 269.246094 L 562.414062 269.246094 C 563 269.246094 563.46875 268.773438 563.46875 268.1875 Z M 561.734375 282.003906 C 561.734375 281.417969 561.261719 280.945312 560.675781 280.945312 L 553.628906 280.945312 C 553.042969 280.945312 552.570312 281.417969 552.570312 282.003906 C 552.570312 282.585938 553.042969 283.058594 553.628906 283.058594 L 560.675781 283.058594 C 561.261719 283.058594 561.734375 282.585938 561.734375 282.003906 Z M 560.867188 288.90625 C 560.867188 288.324219 560.394531 287.847656 559.808594 287.847656 L 552.761719 287.847656 C 552.171875 287.847656 551.703125 288.324219 551.703125 288.90625 C 551.703125 289.492188 552.171875 289.964844 552.761719 289.964844 L 559.808594 289.964844 C 560.394531 289.964844 560.867188 289.492188 560.867188 288.90625 Z M 637.761719 250.132812 L 631.945312 296.367188 L 619.253906 296.367188 C 619.363281 296.207031 619.4375 296.019531 619.4375 295.8125 C 619.4375 295.226562 618.964844 294.757812 618.378906 294.757812 L 590.351562 294.757812 C 589.769531 294.757812 589.292969 295.226562 589.292969 295.8125 C 589.292969 296.019531 589.367188 296.207031 589.472656 296.367188 L 583.730469 296.367188 C 583.832031 296.207031 583.910156 296.019531 583.910156 295.8125 C 583.910156 295.226562 583.4375 294.757812 582.851562 294.757812 L 568.835938 294.757812 C 568.253906 294.757812 567.777344 295.226562 567.777344 295.8125 C 567.777344 296.019531 567.855469 296.207031 567.960938 296.367188 L 559.816406 296.367188 C 559.921875 296.207031 559.996094 296.019531 559.996094 295.8125 C 559.996094 295.226562 559.523438 294.757812 558.9375 294.757812 L 551.890625 294.757812 C 551.304688 294.757812 550.835938 295.226562 550.835938 295.8125 C 550.835938 296.019531 550.910156 296.207031 551.015625 296.367188 L 544.066406 296.367188 L 549.882812 250.132812 C 550.25 247.210938 552.914062 244.847656 555.832031 244.847656 L 633.140625 244.847656 C 636.054688 244.847656 638.128906 247.210938 637.761719 250.132812 Z M 487.660156 265.625 L 479.609375 265.625 C 478.496094 265.625 477.484375 266.523438 477.347656 267.632812 C 477.207031 268.742188 477.992188 269.640625 479.105469 269.640625 L 487.15625 269.640625 C 488.269531 269.640625 489.28125 268.742188 489.421875 267.632812 C 489.558594 266.523438 488.773438 265.625 487.660156 265.625 Z M 468.671875 265.625 L 460.617188 265.625 C 459.503906 265.625 458.492188 266.523438 458.351562 267.632812 C 458.214844 268.742188 459 269.640625 460.113281 269.640625 L 468.167969 269.640625 C 469.273438 269.640625 470.289062 268.742188 470.429688 267.632812 C 470.566406 266.523438 469.78125 265.625 468.671875 265.625 Z M 454.871094 248.730469 C 454.007812 248.730469 453.21875 249.433594 453.113281 250.296875 C 453.003906 251.160156 453.617188 251.859375 454.476562 251.859375 C 455.339844 251.859375 456.128906 251.160156 456.238281 250.296875 C 456.347656 249.433594 455.734375 248.730469 454.871094 248.730469 Z M 460.402344 251.859375 C 461.265625 251.859375 462.050781 251.160156 462.160156 250.296875 C 462.269531 249.433594 461.65625 248.730469 460.792969 248.730469 C 459.929688 248.730469 459.140625 249.433594 459.035156 250.296875 C 458.921875 251.160156 459.539062 251.859375 460.402344 251.859375 Z M 466.320312 251.859375 C 467.183594 251.859375 467.972656 251.160156 468.078125 250.296875 C 468.191406 249.433594 467.578125 248.730469 466.710938 248.730469 C 465.847656 248.730469 465.066406 249.433594 464.953125 250.296875 C 464.84375 251.160156 465.457031 251.859375 466.320312 251.859375 Z M 482.789062 258.433594 L 467.03125 258.433594 C 466.449219 258.433594 465.972656 258.910156 465.972656 259.492188 C 465.972656 260.078125 466.449219 260.546875 467.03125 260.546875 L 482.789062 260.546875 C 483.375 260.546875 483.84375 260.078125 483.84375 259.492188 C 483.84375 258.910156 483.375 258.433594 482.789062 258.433594 Z M 498.792969 244.832031 C 501.714844 244.832031 503.785156 247.203125 503.417969 250.117188 L 501.199219 267.738281 C 500.835938 270.65625 498.167969 273.023438 495.253906 273.023438 L 450.351562 273.023438 C 447.433594 273.023438 445.363281 270.65625 445.730469 267.738281 L 447.945312 250.117188 C 448.3125 247.203125 450.976562 244.832031 453.894531 244.832031 Z M 474.910156 153.019531 C 475.023438 152.15625 474.410156 151.453125 473.542969 151.453125 C 472.683594 151.453125 471.894531 152.15625 471.785156 153.019531 C 471.675781 153.882812 472.289062 154.578125 473.152344 154.578125 C 474.015625 154.578125 474.804688 153.882812 474.910156 153.019531 Z M 530.734375 229.851562 C 530.734375 229.261719 530.257812 228.792969 529.675781 228.792969 L 524.273438 228.792969 C 523.6875 228.792969 523.214844 229.261719 523.214844 229.851562 C 523.214844 230.433594 523.6875 230.90625 524.273438 230.90625 L 529.675781 230.90625 C 530.257812 230.90625 530.734375 230.433594 530.734375 229.851562 Z M 522.984375 175.589844 C 523.566406 175.589844 524.042969 175.117188 524.042969 174.535156 C 524.042969 173.949219 523.566406 173.476562 522.984375 173.476562 L 507.242188 173.476562 C 506.660156 173.476562 506.1875 173.949219 506.1875 174.535156 C 506.1875 175.117188 506.660156 175.589844 507.242188 175.589844 Z M 519.917969 183.789062 L 481.617188 183.789062 C 480.0625 183.789062 478.640625 185.050781 478.445312 186.605469 L 477.285156 195.816406 C 477.09375 197.367188 478.195312 198.628906 479.753906 198.628906 L 518.050781 198.628906 C 519.609375 198.628906 521.03125 197.367188 521.226562 195.816406 L 522.382812 186.605469 C 522.578125 185.050781 521.472656 183.789062 519.917969 183.789062 Z M 503.394531 225.832031 L 508.796875 225.832031 C 509.378906 225.832031 509.855469 225.359375 509.855469 224.773438 C 509.855469 224.1875 509.378906 223.71875 508.796875 223.71875 L 503.394531 223.71875 C 502.808594 223.71875 502.335938 224.1875 502.335938 224.773438 C 502.335938 225.359375 502.808594 225.832031 503.394531 225.832031 Z M 512.644531 229.851562 C 512.644531 229.261719 512.171875 228.792969 511.589844 228.792969 L 502.753906 228.792969 C 502.171875 228.792969 501.695312 229.261719 501.695312 229.851562 C 501.695312 230.433594 502.171875 230.90625 502.753906 230.90625 L 511.589844 230.90625 C 512.171875 230.90625 512.644531 230.433594 512.644531 229.851562 Z M 494.359375 224.773438 C 494.359375 224.1875 493.886719 223.71875 493.304688 223.71875 L 483.871094 223.71875 C 483.285156 223.71875 482.8125 224.1875 482.8125 224.773438 C 482.8125 225.359375 483.285156 225.832031 483.871094 225.832031 L 493.304688 225.832031 C 493.886719 225.832031 494.359375 225.359375 494.359375 224.773438 Z M 489.695312 229.851562 C 489.695312 229.261719 489.21875 228.792969 488.636719 228.792969 L 483.230469 228.792969 C 482.648438 228.792969 482.171875 229.261719 482.171875 229.851562 C 482.171875 230.433594 482.648438 230.90625 483.230469 230.90625 L 488.636719 230.90625 C 489.21875 230.90625 489.695312 230.433594 489.695312 229.851562 Z M 473.03125 224.773438 C 473.03125 224.1875 472.5625 223.71875 471.972656 223.71875 L 461.167969 223.71875 C 460.585938 223.71875 460.113281 224.1875 460.113281 224.773438 C 460.113281 225.359375 460.585938 225.832031 461.167969 225.832031 L 471.972656 225.832031 C 472.5625 225.832031 473.03125 225.359375 473.03125 224.773438 Z M 468.078125 229.851562 C 468.078125 229.261719 467.605469 228.792969 467.023438 228.792969 L 460.535156 228.792969 C 459.945312 228.792969 459.476562 229.261719 459.476562 229.851562 C 459.476562 230.433594 459.945312 230.90625 460.535156 230.90625 L 467.023438 230.90625 C 467.605469 230.90625 468.078125 230.433594 468.078125 229.851562 Z M 478.90625 174.535156 C 478.90625 175.117188 479.378906 175.589844 479.960938 175.589844 L 499.933594 175.589844 C 500.519531 175.589844 500.988281 175.117188 500.988281 174.535156 C 500.988281 173.949219 500.519531 173.476562 499.933594 173.476562 L 479.960938 173.476562 C 479.378906 173.476562 478.90625 173.949219 478.90625 174.535156 Z M 523.851562 224.773438 C 523.851562 225.359375 524.328125 225.832031 524.910156 225.832031 L 534.34375 225.832031 C 534.925781 225.832031 535.398438 225.359375 535.398438 224.773438 C 535.398438 224.1875 534.925781 223.71875 534.34375 223.71875 L 524.910156 223.71875 C 524.328125 223.71875 523.851562 224.1875 523.851562 224.773438 Z M 532.71875 237.109375 L 455.410156 237.109375 C 452.492188 237.109375 450.421875 234.742188 450.789062 231.824219 L 459.726562 160.71875 L 547.609375 160.71875 L 548.882812 150.597656 L 538.667969 231.824219 C 538.304688 234.742188 535.640625 237.109375 532.71875 237.109375 Z M 651.097656 288.878906 L 640.429688 288.878906 C 639.847656 288.878906 639.375 289.351562 639.375 289.933594 C 639.375 290.515625 639.847656 290.992188 640.429688 290.992188 L 651.097656 290.992188 C 651.679688 290.992188 652.15625 290.515625 652.15625 289.933594 C 652.15625 289.351562 651.679688 288.878906 651.097656 288.878906 Z M 656.3125 281.96875 L 641.300781 281.96875 C 640.714844 281.96875 640.246094 282.445312 640.246094 283.027344 C 640.246094 283.613281 640.714844 284.082031 641.300781 284.082031 L 656.3125 284.082031 C 656.898438 284.082031 657.367188 283.613281 657.367188 283.027344 C 657.367188 282.445312 656.898438 281.96875 656.3125 281.96875 Z M 642.167969 277.179688 L 651.078125 277.179688 C 651.660156 277.179688 652.136719 276.707031 652.136719 276.121094 C 652.136719 275.539062 651.660156 275.066406 651.078125 275.066406 L 642.167969 275.066406 C 641.582031 275.066406 641.113281 275.539062 641.113281 276.121094 C 641.113281 276.707031 641.582031 277.179688 642.167969 277.179688 Z M 661.484375 197.058594 L 650.816406 197.058594 C 650.230469 197.058594 649.761719 197.53125 649.761719 198.113281 C 649.761719 198.699219 650.230469 199.171875 650.816406 199.171875 L 661.484375 199.171875 C 662.066406 199.171875 662.539062 198.699219 662.539062 198.113281 C 662.539062 197.53125 662.066406 197.058594 661.484375 197.058594 Z M 666.695312 190.152344 L 651.6875 190.152344 C 651.097656 190.152344 650.628906 190.625 650.628906 191.210938 C 650.628906 191.792969 651.097656 192.269531 651.6875 192.269531 L 666.695312 192.269531 C 667.28125 192.269531 667.753906 191.792969 667.753906 191.210938 C 667.753906 190.625 667.28125 190.152344 666.695312 190.152344 Z M 652.554688 183.246094 C 651.96875 183.246094 651.496094 183.722656 651.496094 184.304688 C 651.496094 184.890625 651.96875 185.359375 652.554688 185.359375 L 661.460938 185.359375 C 662.046875 185.359375 662.519531 184.890625 662.519531 184.304688 C 662.519531 183.722656 662.046875 183.246094 661.460938 183.246094 Z M 636.417969 160.71875 C 636.417969 160.136719 635.949219 159.660156 635.363281 159.660156 L 617.546875 159.660156 C 616.960938 159.660156 616.492188 160.136719 616.492188 160.71875 C 616.492188 161.304688 616.960938 161.777344 617.546875 161.777344 L 635.363281 161.777344 C 635.949219 161.777344 636.417969 161.304688 636.417969 160.71875 Z M 627.5 174.535156 C 627.5 173.949219 627.027344 173.476562 626.441406 173.476562 L 610.875 173.476562 C 610.292969 173.476562 609.816406 173.949219 609.816406 174.535156 C 609.816406 175.117188 610.292969 175.589844 610.875 175.589844 L 626.441406 175.589844 C 627.027344 175.589844 627.5 175.117188 627.5 174.535156 Z M 623.15625 209.058594 C 623.15625 208.476562 622.6875 208.003906 622.101562 208.003906 L 606.53125 208.003906 C 605.949219 208.003906 605.476562 208.476562 605.476562 209.058594 C 605.476562 209.648438 605.949219 210.117188 606.53125 210.117188 L 622.101562 210.117188 C 622.6875 210.117188 623.15625 209.648438 623.15625 209.058594 Z M 615.429688 215.96875 C 615.429688 215.382812 614.957031 214.910156 614.371094 214.910156 L 595.5625 214.910156 C 594.976562 214.910156 594.503906 215.382812 594.503906 215.96875 C 594.503906 216.550781 594.976562 217.023438 595.5625 217.023438 L 614.371094 217.023438 C 614.957031 217.023438 615.429688 216.550781 615.429688 215.96875 Z M 604.769531 222.871094 C 604.769531 222.289062 604.292969 221.816406 603.710938 221.816406 L 578.007812 221.816406 C 577.421875 221.816406 576.953125 222.289062 576.953125 222.871094 C 576.953125 223.457031 577.421875 223.929688 578.007812 223.929688 L 603.710938 223.929688 C 604.292969 223.929688 604.769531 223.457031 604.769531 222.871094 Z M 576.980469 160.71875 C 576.980469 160.136719 576.507812 159.660156 575.921875 159.660156 L 568.875 159.660156 C 568.292969 159.660156 567.820312 160.136719 567.820312 160.71875 C 567.820312 161.304688 568.292969 161.777344 568.875 161.777344 L 575.921875 161.777344 C 576.507812 161.777344 576.980469 161.304688 576.980469 160.71875 Z M 576.113281 167.625 C 576.113281 167.042969 575.640625 166.570312 575.054688 166.570312 L 568.007812 166.570312 C 567.421875 166.570312 566.953125 167.042969 566.953125 167.625 C 566.953125 168.207031 567.421875 168.683594 568.007812 168.683594 L 575.054688 168.683594 C 575.640625 168.683594 576.113281 168.207031 576.113281 167.625 Z M 575.246094 174.535156 C 575.246094 173.949219 574.773438 173.476562 574.1875 173.476562 L 567.140625 173.476562 C 566.554688 173.476562 566.085938 173.949219 566.085938 174.535156 C 566.085938 175.117188 566.554688 175.589844 567.140625 175.589844 L 574.1875 175.589844 C 574.773438 175.589844 575.246094 175.117188 575.246094 174.535156 Z M 574.378906 181.4375 C 574.378906 180.855469 573.902344 180.378906 573.320312 180.378906 L 566.269531 180.378906 C 565.6875 180.378906 565.210938 180.855469 565.210938 181.4375 C 565.210938 182.019531 565.6875 182.496094 566.269531 182.496094 L 573.320312 182.496094 C 573.902344 182.496094 574.378906 182.019531 574.378906 181.4375 Z M 573.511719 188.34375 C 573.511719 187.757812 573.035156 187.289062 572.453125 187.289062 L 565.402344 187.289062 C 564.820312 187.289062 564.34375 187.757812 564.34375 188.34375 C 564.34375 188.925781 564.820312 189.402344 565.402344 189.402344 L 572.453125 189.402344 C 573.035156 189.402344 573.511719 188.925781 573.511719 188.34375 Z M 571.773438 202.15625 C 571.773438 201.570312 571.300781 201.101562 570.714844 201.101562 L 563.667969 201.101562 C 563.082031 201.101562 562.609375 201.570312 562.609375 202.15625 C 562.609375 202.738281 563.082031 203.214844 563.667969 203.214844 L 570.714844 203.214844 C 571.300781 203.214844 571.773438 202.738281 571.773438 202.15625 Z M 570.90625 209.058594 C 570.90625 208.476562 570.429688 208.003906 569.847656 208.003906 L 562.796875 208.003906 C 562.214844 208.003906 561.738281 208.476562 561.738281 209.058594 C 561.738281 209.648438 562.214844 210.117188 562.796875 210.117188 L 569.847656 210.117188 C 570.429688 210.117188 570.90625 209.648438 570.90625 209.058594 Z M 570.035156 215.96875 C 570.035156 215.382812 569.5625 214.910156 568.980469 214.910156 L 561.929688 214.910156 C 561.347656 214.910156 560.871094 215.382812 560.871094 215.96875 C 560.871094 216.550781 561.347656 217.023438 561.929688 217.023438 L 568.980469 217.023438 C 569.5625 217.023438 570.035156 216.550781 570.035156 215.96875 Z M 569.167969 222.871094 C 569.167969 222.289062 568.695312 221.816406 568.113281 221.816406 L 561.0625 221.816406 C 560.480469 221.816406 560.003906 222.289062 560.003906 222.871094 C 560.003906 223.457031 560.480469 223.929688 561.0625 223.929688 L 568.113281 223.929688 C 568.695312 223.929688 569.167969 223.457031 569.167969 222.871094 Z M 577.820312 215.96875 C 577.820312 216.550781 578.292969 217.023438 578.875 217.023438 L 589.539062 217.023438 C 590.121094 217.023438 590.597656 216.550781 590.597656 215.96875 C 590.597656 215.382812 590.121094 214.910156 589.539062 214.910156 L 578.875 214.910156 C 578.292969 214.910156 577.820312 215.382812 577.820312 215.96875 Z M 578.6875 209.058594 C 578.6875 209.648438 579.160156 210.117188 579.742188 210.117188 L 600.515625 210.117188 C 601.097656 210.117188 601.570312 209.648438 601.570312 209.058594 C 601.570312 208.476562 601.097656 208.003906 600.515625 208.003906 L 579.742188 208.003906 C 579.160156 208.003906 578.6875 208.476562 578.6875 209.058594 Z M 579.554688 202.15625 C 579.554688 202.738281 580.027344 203.214844 580.609375 203.214844 L 589.519531 203.214844 C 590.105469 203.214844 590.578125 202.738281 590.578125 202.15625 C 590.578125 201.570312 590.105469 201.101562 589.519531 201.101562 L 580.609375 201.101562 C 580.027344 201.101562 579.554688 201.570312 579.554688 202.15625 Z M 581.292969 188.34375 C 581.292969 188.925781 581.765625 189.402344 582.347656 189.402344 L 595.199219 189.402344 C 595.785156 189.402344 596.257812 188.925781 596.257812 188.34375 C 596.257812 187.757812 595.785156 187.289062 595.199219 187.289062 L 582.347656 187.289062 C 581.765625 187.289062 581.292969 187.757812 581.292969 188.34375 Z M 582.160156 181.4375 C 582.160156 182.019531 582.632812 182.496094 583.21875 182.496094 L 593.882812 182.496094 C 594.46875 182.496094 594.9375 182.019531 594.9375 181.4375 C 594.9375 180.855469 594.46875 180.378906 593.882812 180.378906 L 583.21875 180.378906 C 582.632812 180.378906 582.160156 180.855469 582.160156 181.4375 Z M 583.027344 174.535156 C 583.027344 175.117188 583.503906 175.589844 584.085938 175.589844 L 604.855469 175.589844 C 605.4375 175.589844 605.914062 175.117188 605.914062 174.535156 C 605.914062 173.949219 605.4375 173.476562 604.855469 173.476562 L 584.085938 173.476562 C 583.503906 173.476562 583.027344 173.949219 583.027344 174.535156 Z M 583.894531 167.625 C 583.894531 168.207031 584.371094 168.683594 584.953125 168.683594 L 593.859375 168.683594 C 594.449219 168.683594 594.917969 168.207031 594.917969 167.625 C 594.917969 167.042969 594.449219 166.570312 593.859375 166.570312 L 584.953125 166.570312 C 584.371094 166.570312 583.894531 167.042969 583.894531 167.625 Z M 584.765625 160.71875 C 584.765625 161.304688 585.238281 161.777344 585.824219 161.777344 L 611.527344 161.777344 C 612.109375 161.777344 612.582031 161.304688 612.582031 160.71875 C 612.582031 160.136719 612.109375 159.660156 611.527344 159.660156 L 585.824219 159.660156 C 585.238281 159.660156 584.765625 160.136719 584.765625 160.71875 Z M 616.445312 168.683594 C 617.03125 168.683594 617.503906 168.207031 617.503906 167.625 C 617.503906 167.042969 617.03125 166.570312 616.445312 166.570312 L 598.628906 166.570312 C 598.042969 166.570312 597.570312 167.042969 597.570312 167.625 C 597.570312 168.207031 598.042969 168.683594 598.628906 168.683594 Z M 608.023438 181.4375 C 608.023438 180.855469 607.546875 180.378906 606.964844 180.378906 L 599.902344 180.378906 C 599.316406 180.378906 598.847656 180.855469 598.847656 181.4375 C 598.847656 182.019531 599.316406 182.496094 599.902344 182.496094 L 606.964844 182.496094 C 607.546875 182.496094 608.023438 182.019531 608.023438 181.4375 Z M 612.105469 201.101562 L 594.285156 201.101562 C 593.703125 201.101562 593.230469 201.570312 593.230469 202.15625 C 593.230469 202.738281 593.703125 203.214844 594.285156 203.214844 L 612.105469 203.214844 C 612.691406 203.214844 613.160156 202.738281 613.160156 202.15625 C 613.160156 201.570312 612.691406 201.101562 612.105469 201.101562 Z M 618.242188 189.402344 C 618.824219 189.402344 619.300781 188.925781 619.300781 188.34375 C 619.300781 187.757812 618.824219 187.289062 618.242188 187.289062 L 599.820312 187.289062 C 599.238281 187.289062 598.761719 187.757812 598.761719 188.34375 C 598.761719 188.925781 599.238281 189.402344 599.820312 189.402344 Z M 640.0625 231.824219 C 639.695312 234.742188 637.03125 237.109375 634.109375 237.109375 L 556.804688 237.109375 C 553.882812 237.109375 551.8125 234.742188 552.179688 231.824219 L 562.394531 150.597656 C 562.757812 147.679688 565.425781 145.3125 568.34375 145.3125 L 645.652344 145.3125 C 648.570312 145.3125 650.640625 147.679688 650.277344 150.597656 Z M 363.695312 177.824219 L 362.710938 169.714844 C 361.761719 161.839844 364.082031 154.402344 368.539062 148.65625 L 325.226562 148.65625 L 325.226562 177.707031 C 325.226562 177.746094 325.214844 177.785156 325.214844 177.824219 Z M 316.351562 147.683594 L 305.878906 147.683594 L 305.878906 173.015625 L 316.351562 173.015625 Z M 300.5625 148.65625 L 300.5625 144.511719 L 290.085938 144.511719 L 290.085938 173.015625 L 300.5625 173.015625 Z M 284.769531 151.484375 L 274.296875 151.484375 L 274.296875 173.015625 L 284.769531 173.015625 Z M 268.980469 164.210938 L 258.507812 164.210938 L 258.507812 173.015625 L 268.980469 173.015625 Z M 253.191406 159.730469 L 242.714844 159.730469 L 242.714844 173.015625 L 253.191406 173.015625 Z M 360.21875 209.101562 L 200.785156 209.101562 C 200.761719 208.75 200.730469 208.394531 200.710938 208.042969 L 360.515625 208.042969 L 363.417969 197.832031 C 364.664062 193.433594 365.023438 188.832031 364.472656 184.289062 L 363.820312 178.882812 L 325.082031 178.882812 C 324.546875 181.230469 322.453125 182.992188 319.941406 182.992188 L 241.898438 182.992188 C 239.382812 182.992188 237.289062 181.230469 236.75 178.882812 L 201.09375 178.882812 C 201.128906 178.527344 201.167969 178.175781 201.207031 177.824219 L 236.625 177.824219 C 236.625 177.785156 236.613281 177.746094 236.613281 177.707031 L 236.613281 148.65625 L 206.726562 148.65625 C 206.828125 148.304688 206.9375 147.957031 207.042969 147.601562 L 236.613281 147.601562 L 236.613281 136.777344 C 236.613281 133.859375 238.976562 131.492188 241.898438 131.492188 L 319.941406 131.492188 C 322.855469 131.492188 325.226562 133.859375 325.226562 136.777344 L 325.226562 147.601562 L 369.402344 147.601562 C 374.648438 141.464844 382.441406 137.519531 391.257812 137.519531 C 399.960938 137.519531 407.832031 141.402344 413.128906 147.601562 L 440.96875 147.601562 L 440.851562 148.65625 L 413.992188 148.65625 C 417.1875 152.773438 419.296875 157.796875 419.863281 163.316406 L 420.152344 166.109375 L 426.171875 177.824219 L 437.617188 177.824219 L 437.5 178.882812 L 426.5625 178.882812 C 426.585938 179.550781 426.167969 180.199219 425.472656 180.402344 L 423.109375 181.09375 C 422.417969 181.292969 421.96875 181.945312 422.023438 182.660156 C 422.386719 187.363281 423.441406 204.132812 420.152344 205.90625 C 416.316406 207.96875 398.015625 204.269531 398.015625 204.269531 C 397.667969 205.519531 397.386719 206.777344 397.144531 208.042969 L 434.265625 208.042969 L 434.148438 209.101562 L 396.964844 209.101562 C 396.316406 213.023438 396.152344 217.007812 396.492188 220.964844 C 392.390625 219.566406 386.910156 217.417969 378.386719 215.683594 C 370.214844 214.023438 362.339844 215.898438 357.871094 217.386719 Z M 336.242188 294.214844 C 334.941406 286.003906 333.226562 277.53125 331.085938 269.546875 L 331.089844 269.546875 C 331.050781 269.40625 331.015625 269.269531 330.976562 269.132812 C 330.210938 266.308594 329.390625 263.542969 328.515625 260.878906 C 325.585938 251.976562 328.371094 242.929688 334.433594 237.082031 C 334.140625 237.214844 333.84375 237.332031 333.554688 237.476562 C 333.058594 237.722656 332.589844 237.992188 332.121094 238.265625 L 204.8125 238.265625 C 204.886719 238.621094 204.957031 238.96875 205.03125 239.320312 L 330.492188 239.320312 C 321.347656 245.882812 318.398438 258.445312 324.054688 268.488281 L 213.132812 268.488281 C 213.253906 268.839844 213.367188 269.195312 213.488281 269.546875 L 324.644531 269.546875 Z M 435.40625 450.492188 C 439.722656 450.492188 444.046875 450.257812 448.375 449.816406 L 420.714844 449.816406 C 425.59375 450.25 430.492188 450.492188 435.40625 450.492188 Z M 376.148438 419.628906 C 375.121094 419.628906 374.121094 419.617188 373.140625 419.597656 L 333.507812 419.597656 C 334.089844 419.949219 334.679688 420.296875 335.261719 420.652344 L 525.394531 420.652344 C 525.941406 420.300781 526.484375 419.945312 527.023438 419.597656 L 377.433594 419.597656 C 377 419.601562 376.589844 419.628906 376.148438 419.628906 Z M 334.171875 389.371094 L 293.425781 389.371094 C 293.8125 389.726562 294.199219 390.078125 294.589844 390.429688 L 334.230469 390.429688 C 334.210938 390.078125 334.191406 389.726562 334.171875 389.371094 Z M 423.492188 390.429688 L 564.203125 390.429688 C 564.585938 390.078125 564.964844 389.726562 565.34375 389.371094 L 423.867188 389.371094 C 423.75 389.71875 423.625 390.066406 423.492188 390.429688 Z M 335.003906 359.152344 L 264.59375 359.152344 C 264.890625 359.507812 265.191406 359.855469 265.492188 360.210938 L 334.898438 360.210938 C 334.929688 359.855469 334.96875 359.503906 335.003906 359.152344 Z M 339.394531 328.929688 L 242.550781 328.929688 C 242.777344 329.285156 243.003906 329.632812 243.230469 329.984375 L 339.394531 329.984375 C 339.394531 329.640625 339.394531 329.292969 339.394531 328.929688 Z M 502.320312 344.089844 C 504.796875 344.492188 507.234375 344.875 509.59375 345.234375 L 509.324219 344.816406 L 503.050781 343.488281 Z M 557.59375 359.152344 L 573.507812 359.152344 L 568.472656 355.644531 L 559.46875 357.699219 Z M 435.496094 298.707031 L 637.167969 298.707031 C 636.960938 299.058594 636.757812 299.414062 636.550781 299.765625 L 436.03125 299.765625 C 442.730469 312.738281 448.875 323.523438 452.578125 328.929688 L 617.757812 328.929688 C 617.511719 329.285156 617.261719 329.632812 617.015625 329.984375 L 453.320312 329.984375 C 454.285156 331.324219 455.039062 332.199219 455.53125 332.523438 C 459.460938 335.140625 469.171875 337.769531 480.511719 340.121094 L 498.503906 333.332031 C 500.339844 332.644531 502.398438 332.878906 504.03125 333.96875 L 512.917969 339.90625 L 516.628906 346.28125 C 523.566406 347.285156 529.269531 348.035156 532.445312 348.441406 L 542.296875 348.070312 L 563.425781 340.773438 C 565.320312 340.121094 567.417969 340.417969 569.054688 341.582031 L 577.960938 347.902344 L 584.085938 359.152344 L 594.292969 359.152344 C 593.992188 359.503906 593.691406 359.859375 593.390625 360.210938 L 584.660156 360.210938 L 584.863281 360.589844 C 585.257812 361.3125 584.960938 362.214844 584.210938 362.558594 C 582.722656 362.457031 581.015625 361.710938 579.628906 360.675781 L 579.988281 363.109375 C 580.152344 364.21875 579.242188 365.199219 578.125 365.117188 C 576.378906 364.996094 574.941406 363.699219 574.636719 361.972656 L 574.328125 360.210938 L 556.226562 360.210938 L 551.898438 363.558594 C 549.855469 365.132812 547.480469 366.183594 544.972656 366.640625 C 543.34375 366.9375 541.660156 366.890625 540.019531 366.667969 L 530.027344 365.289062 L 455.652344 364.757812 C 446.671875 364.382812 440.058594 362.679688 435.027344 360.210938 L 416.058594 360.210938 C 416.003906 360.039062 415.953125 359.871094 415.90625 359.695312 L 415.902344 359.695312 C 415.859375 359.558594 415.820312 359.417969 415.777344 359.273438 C 415.765625 359.234375 415.753906 359.195312 415.738281 359.152344 L 415.746094 359.152344 C 414.152344 353.761719 413.011719 348.167969 413.011719 343.230469 C 413.011719 340.417969 413.425781 337.453125 414.105469 334.382812 C 414.277344 334.414062 414.457031 334.449219 414.632812 334.480469 L 403.476562 312.953125 C 402.890625 313.078125 402.292969 313.144531 401.679688 313.144531 C 396.128906 313.144531 390.652344 307.941406 386.539062 299.765625 L 226.152344 299.765625 C 225.984375 299.414062 225.804688 299.0625 225.632812 298.707031 L 386.023438 298.707031 C 383.003906 292.339844 380.785156 284.335938 379.933594 275.628906 C 379.253906 268.644531 379.539062 262.113281 380.589844 256.515625 C 380.507812 249.195312 382.484375 242.800781 387.941406 240.257812 C 388.378906 240.050781 388.824219 239.890625 389.261719 239.722656 C 390.820312 238.675781 392.523438 238.113281 394.347656 238.113281 C 395.09375 238.113281 395.832031 238.214844 396.566406 238.394531 C 403.890625 238.558594 410.402344 243.230469 413.488281 250.988281 C 419.660156 266.507812 427.894531 283.941406 435.488281 298.707031 Z M 427.445312 269.546875 L 427.5625 268.488281 L 423.332031 268.488281 C 423.453125 268.839844 423.570312 269.195312 423.6875 269.546875 Z M 430.914062 238.265625 L 410.207031 238.265625 C 410.324219 238.484375 410.449219 238.699219 410.5625 238.917969 C 410.625 239.050781 410.695312 239.191406 410.761719 239.320312 L 430.800781 239.320312 Z M 678.992188 117.382812 L 219.539062 117.382812 C 219.351562 117.730469 219.164062 118.085938 218.980469 118.4375 L 679.246094 118.4375 C 679.160156 118.085938 679.078125 117.730469 678.992188 117.382812"/></g><g clip-path="url(#d)"><path fill="#393A3F" d="M 563.894531 332.191406 L 534.113281 332.28125 L 519.222656 332.332031 L 504.332031 332.480469 L 504.332031 332.957031 L 519.222656 333.101562 L 534.113281 333.152344 L 563.894531 333.242188 L 593.675781 333.132812 L 608.570312 333.074219 L 623.457031 332.921875 L 623.457031 332.515625 L 608.570312 332.363281 L 593.675781 332.300781 Z M 551.40625 98.144531 L 540.644531 98.144531 L 540.644531 99.203125 L 551.40625 99.203125 Z M 557.011719 95.675781 L 557.011719 94.617188 L 550.160156 94.617188 L 550.160156 95.675781 Z M 547.492188 94.617188 L 540.644531 94.617188 L 540.644531 95.675781 L 547.492188 95.675781 Z M 557.011719 91.097656 L 540.644531 91.097656 L 540.644531 92.152344 L 557.011719 92.152344 Z M 564.359375 17.496094 C 565.886719 17.496094 567.125 16.257812 567.125 14.730469 C 567.125 13.207031 565.886719 11.96875 564.359375 11.96875 C 562.828125 11.96875 561.59375 13.207031 561.59375 14.730469 C 561.59375 16.257812 562.828125 17.496094 564.359375 17.496094 Z M 414.046875 17.496094 C 415.574219 17.496094 416.8125 16.257812 416.8125 14.730469 C 416.8125 13.207031 415.574219 11.96875 414.046875 11.96875 C 412.519531 11.96875 411.277344 13.207031 411.277344 14.730469 C 411.277344 16.257812 412.519531 17.496094 414.046875 17.496094 Z M 306 100.4375 L 295.238281 100.4375 L 295.238281 101.492188 L 306 101.492188 Z M 311.605469 97.964844 L 311.605469 96.910156 L 304.753906 96.910156 L 304.753906 97.964844 Z M 302.089844 96.910156 L 295.238281 96.910156 L 295.238281 97.964844 L 302.089844 97.964844 Z M 311.605469 93.386719 L 295.238281 93.386719 L 295.238281 94.445312 L 311.605469 94.445312 Z M 267.097656 17.496094 C 268.621094 17.496094 269.859375 16.257812 269.859375 14.730469 C 269.859375 13.207031 268.621094 11.96875 267.097656 11.96875 C 265.570312 11.96875 264.332031 13.207031 264.332031 14.730469 C 264.332031 16.257812 265.570312 17.496094 267.097656 17.496094 Z M 247.425781 178.089844 L 248.480469 178.089844 L 248.480469 176.960938 L 263.214844 176.960938 L 263.214844 178.089844 L 264.273438 178.089844 L 264.273438 176.960938 L 279.003906 176.960938 L 279.003906 178.089844 L 280.0625 178.089844 L 280.0625 176.960938 L 294.796875 176.960938 L 294.796875 178.089844 L 295.851562 178.089844 L 295.851562 176.960938 L 310.585938 176.960938 L 310.585938 178.089844 L 311.644531 178.089844 L 311.644531 176.960938 L 316.453125 176.960938 L 316.453125 175.90625 L 311.644531 175.90625 L 311.644531 174.777344 L 310.585938 174.777344 L 310.585938 175.90625 L 295.851562 175.90625 L 295.851562 174.777344 L 294.796875 174.777344 L 294.796875 175.90625 L 280.0625 175.90625 L 280.0625 174.777344 L 279.003906 174.777344 L 279.003906 175.90625 L 264.273438 175.90625 L 264.273438 174.777344 L 263.214844 174.777344 L 263.214844 175.90625 L 248.480469 175.90625 L 248.480469 174.777344 L 247.425781 174.777344 L 247.425781 175.90625 L 242.714844 175.90625 L 242.714844 176.960938 L 247.425781 176.960938 Z M 590.699219 137.519531 C 590.699219 136.9375 590.226562 136.460938 589.644531 136.460938 L 453.035156 136.460938 C 452.449219 136.460938 451.980469 136.9375 451.980469 137.519531 C 451.980469 138.105469 452.449219 138.574219 453.035156 138.574219 L 589.644531 138.574219 C 590.226562 138.574219 590.699219 138.105469 590.699219 137.519531 Z M 559.808594 287.847656 L 552.761719 287.847656 C 552.171875 287.847656 551.703125 288.324219 551.703125 288.90625 C 551.703125 289.492188 552.171875 289.964844 552.761719 289.964844 L 559.808594 289.964844 C 560.394531 289.964844 560.867188 289.492188 560.867188 288.90625 C 560.867188 288.324219 560.394531 287.847656 559.808594 287.847656 Z M 561.734375 282.003906 C 561.734375 281.417969 561.261719 280.945312 560.675781 280.945312 L 553.628906 280.945312 C 553.042969 280.945312 552.570312 281.417969 552.570312 282.003906 C 552.570312 282.585938 553.042969 283.058594 553.628906 283.058594 L 560.675781 283.058594 C 561.261719 283.058594 561.734375 282.585938 561.734375 282.003906 Z M 563.46875 268.1875 C 563.46875 267.605469 563 267.128906 562.414062 267.128906 L 555.363281 267.128906 C 554.78125 267.128906 554.304688 267.605469 554.304688 268.1875 C 554.304688 268.773438 554.78125 269.246094 555.363281 269.246094 L 562.414062 269.246094 C 563 269.246094 563.46875 268.773438 563.46875 268.1875 Z M 564.335938 261.285156 C 564.335938 260.703125 563.867188 260.226562 563.28125 260.226562 L 556.234375 260.226562 C 555.648438 260.226562 555.175781 260.703125 555.175781 261.285156 C 555.175781 261.867188 555.648438 262.339844 556.234375 262.339844 L 563.28125 262.339844 C 563.867188 262.339844 564.335938 261.867188 564.335938 261.285156 Z M 565.207031 254.378906 C 565.207031 253.792969 564.734375 253.324219 564.152344 253.324219 L 557.101562 253.324219 C 556.519531 253.324219 556.042969 253.792969 556.042969 254.378906 C 556.042969 254.960938 556.519531 255.4375 557.101562 255.4375 L 564.152344 255.4375 C 564.734375 255.4375 565.207031 254.960938 565.207031 254.378906 Z M 464.953125 250.296875 C 464.84375 251.160156 465.457031 251.859375 466.320312 251.859375 C 467.183594 251.859375 467.972656 251.160156 468.078125 250.296875 C 468.191406 249.433594 467.578125 248.730469 466.710938 248.730469 C 465.847656 248.730469 465.066406 249.433594 464.953125 250.296875 Z M 477.707031 153.019531 C 477.601562 153.882812 478.210938 154.578125 479.074219 154.578125 C 479.9375 154.578125 480.726562 153.882812 480.835938 153.019531 C 480.941406 152.15625 480.332031 151.453125 479.46875 151.453125 C 478.605469 151.453125 477.816406 152.15625 477.707031 153.019531 Z M 493.355469 190.152344 C 492.773438 190.152344 492.300781 190.625 492.300781 191.210938 C 492.300781 191.792969 492.773438 192.269531 493.355469 192.269531 L 506.3125 192.269531 C 506.898438 192.269531 507.371094 191.792969 507.371094 191.210938 C 507.371094 190.625 506.898438 190.152344 506.3125 190.152344 Z M 569.167969 222.871094 C 569.167969 222.289062 568.695312 221.816406 568.113281 221.816406 L 561.0625 221.816406 C 560.480469 221.816406 560.003906 222.289062 560.003906 222.871094 C 560.003906 223.457031 560.480469 223.929688 561.0625 223.929688 L 568.113281 223.929688 C 568.695312 223.929688 569.167969 223.457031 569.167969 222.871094 Z M 570.035156 215.96875 C 570.035156 215.382812 569.5625 214.910156 568.980469 214.910156 L 561.929688 214.910156 C 561.347656 214.910156 560.871094 215.382812 560.871094 215.96875 C 560.871094 216.550781 561.347656 217.023438 561.929688 217.023438 L 568.980469 217.023438 C 569.5625 217.023438 570.035156 216.550781 570.035156 215.96875 Z M 570.90625 209.058594 C 570.90625 208.476562 570.429688 208.003906 569.847656 208.003906 L 562.796875 208.003906 C 562.214844 208.003906 561.738281 208.476562 561.738281 209.058594 C 561.738281 209.648438 562.214844 210.117188 562.796875 210.117188 L 569.847656 210.117188 C 570.429688 210.117188 570.90625 209.648438 570.90625 209.058594 Z M 571.773438 202.15625 C 571.773438 201.570312 571.300781 201.101562 570.714844 201.101562 L 563.667969 201.101562 C 563.082031 201.101562 562.609375 201.570312 562.609375 202.15625 C 562.609375 202.738281 563.082031 203.214844 563.667969 203.214844 L 570.714844 203.214844 C 571.300781 203.214844 571.773438 202.738281 571.773438 202.15625 Z M 573.511719 188.34375 C 573.511719 187.757812 573.035156 187.289062 572.453125 187.289062 L 565.402344 187.289062 C 564.820312 187.289062 564.34375 187.757812 564.34375 188.34375 C 564.34375 188.925781 564.820312 189.402344 565.402344 189.402344 L 572.453125 189.402344 C 573.035156 189.402344 573.511719 188.925781 573.511719 188.34375 Z M 574.378906 181.4375 C 574.378906 180.855469 573.902344 180.378906 573.320312 180.378906 L 566.269531 180.378906 C 565.6875 180.378906 565.210938 180.855469 565.210938 181.4375 C 565.210938 182.019531 565.6875 182.496094 566.269531 182.496094 L 573.320312 182.496094 C 573.902344 182.496094 574.378906 182.019531 574.378906 181.4375 Z M 575.246094 174.535156 C 575.246094 173.949219 574.773438 173.476562 574.1875 173.476562 L 567.140625 173.476562 C 566.554688 173.476562 566.085938 173.949219 566.085938 174.535156 C 566.085938 175.117188 566.554688 175.589844 567.140625 175.589844 L 574.1875 175.589844 C 574.773438 175.589844 575.246094 175.117188 575.246094 174.535156 Z M 576.113281 167.625 C 576.113281 167.042969 575.640625 166.570312 575.054688 166.570312 L 568.007812 166.570312 C 567.421875 166.570312 566.953125 167.042969 566.953125 167.625 C 566.953125 168.207031 567.421875 168.683594 568.007812 168.683594 L 575.054688 168.683594 C 575.640625 168.683594 576.113281 168.207031 576.113281 167.625 Z M 576.980469 160.71875 C 576.980469 160.136719 576.507812 159.660156 575.921875 159.660156 L 568.875 159.660156 C 568.292969 159.660156 567.820312 160.136719 567.820312 160.71875 C 567.820312 161.304688 568.292969 161.777344 568.875 161.777344 L 575.921875 161.777344 C 576.507812 161.777344 576.980469 161.304688 576.980469 160.71875 Z M 414.972656 165.675781 L 419.945312 165.429688 C 420.1875 162.53125 421.027344 159.859375 422.398438 159.183594 C 420.9375 159.03125 419.515625 159.070312 418.433594 159.546875 C 418.363281 155.878906 416.914062 153.925781 416.003906 151.621094 C 415.988281 154.257812 416.707031 153.449219 416.429688 156.976562 C 416.277344 158.933594 416.671875 160.941406 416.214844 162.847656 C 415.976562 163.859375 415.503906 164.78125 414.972656 165.675781 Z M 421.007812 165.375 L 425.148438 165.167969 C 424.835938 162.007812 423.824219 160.074219 423.089844 160.074219 C 422.335938 160.074219 421.296875 162.09375 421.007812 165.375 Z M 425.226562 166.222656 L 420.9375 166.4375 C 420.929688 166.683594 420.921875 166.9375 420.921875 167.195312 C 420.921875 171.542969 422.203125 174.320312 423.089844 174.320312 C 423.96875 174.320312 425.253906 171.542969 425.253906 167.195312 C 425.253906 166.863281 425.238281 166.539062 425.226562 166.222656 Z M 325.523438 208.710938 C 324.378906 201.152344 326.582031 193.152344 331.445312 187.253906 C 333.222656 185.09375 335.425781 183.039062 335.976562 180.292969 C 336.535156 177.460938 335.195312 174.644531 334.578125 171.824219 C 333.410156 166.441406 335.074219 160.519531 338.882812 156.535156 C 341.804688 153.480469 345.847656 151.539062 348.3125 148.105469 C 350.382812 145.226562 351.109375 141.632812 352.523438 138.390625 C 356.503906 129.289062 366.558594 123.230469 376.464844 123.964844 C 379.21875 120.539062 384.546875 118.933594 388.875 119.699219 C 393.203125 120.460938 397.054688 122.917969 400.421875 125.742188 C 411.015625 124.121094 424.332031 134.222656 428.03125 160.4375 C 427.035156 160.140625 425.648438 159.746094 424.1875 159.457031 C 425.570312 160.632812 426.308594 163.996094 426.308594 167.195312 C 426.308594 171.160156 425.179688 175.375 423.089844 175.375 C 420.992188 175.375 419.867188 171.160156 419.867188 167.195312 C 419.867188 166.960938 419.871094 166.726562 419.878906 166.492188 L 417.484375 166.609375 C 417.941406 166.855469 418.285156 167.757812 418.285156 168.84375 C 418.285156 170.117188 417.8125 171.148438 417.234375 171.148438 C 416.652344 171.148438 416.1875 170.117188 416.1875 168.84375 C 416.1875 167.792969 416.507812 166.910156 416.945312 166.636719 L 414.292969 166.765625 C 413.667969 167.753906 413.03125 168.742188 412.601562 169.824219 C 410.640625 174.78125 413.417969 180.40625 412.636719 185.6875 C 412.148438 188.996094 410.292969 191.9375 409.289062 195.132812 C 407.867188 199.667969 408.867188 205.9375 410.953125 210.207031 L 396.28125 210.207031 C 395.363281 206.753906 394.183594 203.617188 394.050781 200.046875 C 393.078125 203.785156 392.648438 207.191406 392.320312 211.042969 C 390.515625 206.171875 389.324219 201.429688 389.203125 196.238281 C 388.6875 200.394531 388.507812 204.550781 387.992188 208.710938 Z M 424.679688 351.359375 C 426.300781 353.402344 428.082031 355.328125 430.03125 357.082031 C 431.96875 358.84375 434.121094 360.402344 436.496094 361.601562 C 437.6875 362.175781 438.949219 362.636719 440.246094 362.964844 C 441.570312 363.253906 442.847656 363.394531 444.132812 363.574219 C 446.710938 363.902344 449.285156 364.222656 451.867188 364.453125 C 457.035156 364.945312 462.214844 365.265625 467.40625 365.363281 C 467.535156 365.363281 467.644531 365.261719 467.648438 365.136719 C 467.660156 365.003906 467.554688 364.890625 467.421875 364.882812 C 464.839844 364.738281 462.261719 364.527344 459.6875 364.292969 C 457.109375 364.070312 454.535156 363.816406 451.96875 363.523438 C 449.398438 363.21875 446.828125 362.925781 444.269531 362.570312 C 442.992188 362.386719 441.691406 362.226562 440.488281 361.957031 C 439.273438 361.640625 438.09375 361.199219 436.957031 360.652344 C 432.402344 358.398438 428.660156 354.710938 425.367188 350.796875 C 423.714844 348.824219 422.183594 346.75 420.746094 344.609375 C 419.292969 342.480469 417.921875 340.28125 416.695312 338.019531 L 416.691406 338.011719 C 416.636719 337.917969 416.519531 337.878906 416.421875 337.929688 C 416.324219 337.980469 416.28125 338.097656 416.332031 338.199219 C 418.644531 342.859375 421.421875 347.28125 424.679688 351.359375 Z M 389.289062 287.46875 C 388.703125 287.117188 388.160156 286.710938 387.640625 286.269531 C 387.125 285.816406 386.648438 285.308594 386.175781 284.777344 C 386.117188 284.714844 386.027344 284.691406 385.945312 284.722656 C 385.839844 284.765625 385.785156 284.882812 385.828125 284.988281 C 386.378906 286.375 387.453125 287.558594 388.726562 288.367188 C 389.371094 288.765625 390.054688 289.09375 390.765625 289.316406 C 391.363281 289.503906 391.96875 289.632812 392.585938 289.710938 C 394.621094 294.347656 396.738281 298.953125 398.863281 303.546875 C 401.292969 308.660156 403.738281 313.761719 406.25 318.832031 C 408.765625 323.902344 411.328125 328.945312 414.011719 333.933594 C 414.070312 334.046875 414.214844 334.09375 414.328125 334.035156 C 414.445312 333.976562 414.496094 333.832031 414.4375 333.714844 C 413.1875 331.179688 411.96875 328.625 410.753906 326.074219 L 407.089844 318.425781 L 399.816406 303.097656 C 397.390625 297.992188 395.019531 292.859375 392.675781 287.71875 C 391.503906 285.144531 390.359375 282.558594 389.25 279.96875 C 388.148438 277.371094 387.019531 274.769531 386.195312 272.085938 L 386.191406 272.074219 C 386.164062 271.96875 386.050781 271.910156 385.945312 271.941406 C 385.835938 271.96875 385.773438 272.082031 385.808594 272.1875 C 387.371094 277.667969 389.640625 282.871094 391.859375 288.078125 C 391.988281 288.367188 392.117188 288.65625 392.246094 288.945312 C 391.863281 288.777344 391.472656 288.617188 391.105469 288.445312 C 390.480469 288.140625 389.863281 287.832031 389.289062 287.46875 Z M 417.042969 187.101562 C 417.441406 187.359375 417.890625 187.519531 418.351562 187.632812 C 418.8125 187.722656 419.28125 187.765625 419.742188 187.722656 C 419.972656 187.707031 420.195312 187.660156 420.425781 187.628906 C 420.648438 187.5625 420.867188 187.503906 421.078125 187.417969 C 421.140625 187.386719 421.191406 187.324219 421.203125 187.253906 C 421.222656 187.140625 421.140625 187.03125 421.027344 187.015625 C 420.15625 186.878906 419.359375 186.789062 418.585938 186.601562 C 418.203125 186.511719 417.828125 186.390625 417.453125 186.265625 C 417.085938 186.136719 416.710938 185.957031 416.363281 185.789062 L 416.316406 185.765625 C 416.25 185.730469 416.164062 185.730469 416.089844 185.777344 C 415.976562 185.84375 415.9375 185.992188 416.003906 186.101562 C 416.269531 186.554688 416.636719 186.847656 417.042969 187.101562 Z M 635.820312 366.523438 L 617.511719 339.003906 L 617.511719 338.761719 L 604.269531 338.613281 L 591.027344 338.570312 L 564.539062 338.472656 L 538.050781 338.589844 L 524.808594 338.648438 L 511.5625 338.800781 L 511.5625 339.207031 L 511.875 339.210938 L 512.917969 339.90625 L 516.425781 345.933594 L 510.25 345.054688 C 510.289062 345.039062 510.328125 345.027344 510.367188 345.007812 C 510.605469 344.886719 510.808594 344.703125 510.988281 344.511719 C 511.160156 344.304688 511.3125 344.082031 511.402344 343.828125 C 511.492188 343.578125 511.554688 343.3125 511.527344 343.03125 C 511.519531 342.984375 511.496094 342.929688 511.464844 342.886719 C 511.371094 342.777344 511.199219 342.765625 511.089844 342.859375 L 511.078125 342.867188 C 510.882812 343.03125 510.742188 343.199219 510.59375 343.355469 C 510.445312 343.507812 510.320312 343.667969 510.1875 343.824219 C 510.058594 343.988281 509.925781 344.140625 509.800781 344.316406 C 509.667969 344.492188 509.53125 344.664062 509.398438 344.882812 L 509.390625 344.890625 C 509.390625 344.898438 509.390625 344.902344 509.386719 344.910156 L 509.324219 344.816406 L 503.238281 343.527344 C 503.273438 343.378906 503.316406 343.234375 503.34375 343.089844 C 503.453125 342.582031 503.480469 342.066406 503.484375 341.550781 C 503.472656 341.03125 503.429688 340.515625 503.316406 340.011719 C 503.207031 339.507812 503.058594 339.007812 502.820312 338.542969 C 502.777344 338.464844 502.695312 338.414062 502.605469 338.414062 C 502.46875 338.410156 502.351562 338.519531 502.351562 338.65625 C 502.34375 339.160156 502.375 339.644531 502.386719 340.125 L 502.425781 341.566406 L 502.457031 343.007812 C 502.460938 343.316406 502.46875 343.636719 502.472656 343.949219 L 499.4375 343.515625 C 488.871094 341.933594 478.296875 340.328125 467.828125 338.265625 C 465.21875 337.742188 462.59375 337.214844 460.070312 336.472656 C 459.453125 336.277344 458.816406 336.070312 458.285156 335.796875 C 458 335.640625 457.953125 335.609375 457.742188 335.269531 L 457.203125 334.460938 C 456.503906 333.328125 455.804688 332.195312 455.121094 331.046875 C 452.386719 326.464844 449.710938 321.835938 447.039062 317.210938 L 437.582031 300.789062 L 550.539062 300.789062 L 556.757812 324.570312 L 601.578125 324.570312 L 595.359375 300.789062 L 663.417969 300.789062 C 670.0625 300.789062 675.636719 295.796875 676.367188 289.203125 L 692.746094 141.53125 C 693.601562 133.820312 687.5625 127.070312 679.796875 127.070312 L 450.460938 127.070312 C 443.816406 127.070312 438.242188 132.0625 437.511719 138.660156 L 423.167969 268.015625 C 424.519531 271.972656 425.636719 275.832031 426.355469 279.378906 L 441.90625 139.148438 C 442.390625 134.785156 446.066406 131.492188 450.460938 131.492188 L 679.796875 131.492188 C 682.273438 131.492188 684.554688 132.515625 686.207031 134.359375 C 687.863281 136.203125 688.625 138.578125 688.351562 141.042969 L 671.972656 288.714844 C 671.492188 293.078125 667.808594 296.367188 663.417969 296.367188 L 559.816406 296.367188 C 559.921875 296.207031 559.996094 296.019531 559.996094 295.8125 C 559.996094 295.226562 559.523438 294.757812 558.9375 294.757812 L 551.890625 294.757812 C 551.304688 294.757812 550.835938 295.226562 550.835938 295.8125 C 550.835938 296.019531 550.910156 296.207031 551.015625 296.367188 L 435.03125 296.367188 L 431.03125 289.425781 C 430.976562 289.335938 430.855469 289.296875 430.757812 289.351562 C 430.664062 289.40625 430.625 289.53125 430.679688 289.628906 L 434.410156 296.367188 L 434.289062 296.367188 C 435.054688 297.871094 435.8125 299.34375 436.566406 300.789062 L 436.851562 300.789062 L 438.4375 303.660156 L 446.320312 317.625 C 448.964844 322.269531 451.605469 326.914062 454.3125 331.523438 C 454.988281 332.679688 455.679688 333.828125 456.382812 334.976562 L 456.945312 335.835938 C 457.0625 335.992188 457.074219 336.09375 457.300781 336.300781 C 457.488281 336.492188 457.652344 336.566406 457.820312 336.664062 C 458.480469 337.007812 459.125 337.214844 459.777344 337.425781 C 462.375 338.210938 465 338.753906 467.625 339.296875 C 478.144531 341.320312 488.730469 342.855469 499.3125 344.378906 L 515.207031 346.558594 L 531.125 348.511719 C 531.253906 348.523438 531.378906 348.433594 531.390625 348.304688 C 531.410156 348.171875 531.316406 348.054688 531.1875 348.035156 L 525.304688 347.199219 L 530.503906 339.382812 L 538.050781 339.414062 L 564.539062 339.527344 L 591.027344 339.4375 L 604.269531 339.390625 L 610.671875 339.316406 L 628.769531 366.523438 L 622.066406 366.523438 L 612.460938 355.65625 L 608.027344 358.566406 L 616.234375 366.523438 L 589.632812 366.523438 L 613.824219 351.175781 L 579.738281 351.175781 L 584.863281 360.589844 C 585.257812 361.3125 584.960938 362.214844 584.210938 362.558594 C 582.828125 362.460938 581.261719 361.808594 579.933594 360.886719 C 579.933594 360.851562 579.945312 360.828125 579.933594 360.800781 C 579.363281 359.457031 579.351562 357.976562 579.167969 356.453125 C 579.085938 355.683594 578.921875 354.898438 578.621094 354.140625 C 578.320312 353.378906 577.890625 352.691406 577.390625 352.066406 C 576.359375 350.847656 575.121094 349.886719 573.871094 349.035156 C 572.617188 348.175781 571.367188 347.371094 570.242188 346.390625 C 570.171875 346.324219 570.0625 346.320312 569.984375 346.386719 C 569.898438 346.457031 569.882812 346.578125 569.953125 346.667969 C 570.929688 347.875 572.164062 348.820312 573.339844 349.753906 C 574.519531 350.683594 575.6875 351.597656 576.570312 352.730469 C 577.019531 353.285156 577.414062 353.878906 577.683594 354.519531 C 577.964844 355.160156 578.09375 355.867188 578.242188 356.589844 C 578.464844 357.765625 578.597656 359.066406 579.113281 360.25 C 578.464844 359.691406 577.902344 359.082031 577.515625 358.441406 L 574.148438 352.808594 L 568.15625 351.363281 C 568.144531 351.347656 568.136719 351.332031 568.125 351.320312 C 568.070312 351.257812 567.984375 351.222656 567.902344 351.253906 C 567.882812 351.261719 567.871094 351.28125 567.855469 351.289062 L 567.777344 351.273438 L 559.351562 357.789062 C 559.359375 357.738281 559.367188 357.695312 559.371094 357.648438 C 559.421875 357.207031 559.394531 356.765625 559.328125 356.328125 C 559.253906 355.890625 559.136719 355.460938 558.957031 355.054688 C 558.773438 354.65625 558.554688 354.269531 558.253906 353.9375 C 558.195312 353.878906 558.109375 353.847656 558.027344 353.863281 C 557.890625 353.882812 557.800781 354.015625 557.824219 354.152344 C 557.890625 354.570312 557.988281 354.957031 558.0625 355.34375 C 558.132812 355.738281 558.222656 356.117188 558.285156 356.503906 C 558.363281 356.890625 558.414062 357.277344 558.480469 357.667969 C 558.515625 357.902344 558.554688 358.140625 558.59375 358.378906 L 551.898438 363.558594 C 549.992188 365.027344 547.792969 366.019531 545.46875 366.523438 L 538.964844 366.523438 L 530.71875 365.382812 C 531.222656 364.933594 531.679688 364.410156 531.996094 363.789062 C 532.40625 363.035156 532.601562 362.140625 532.472656 361.308594 C 532.457031 361.207031 532.371094 361.121094 532.265625 361.105469 C 532.132812 361.089844 532.011719 361.179688 531.992188 361.3125 C 531.882812 362.054688 531.617188 362.726562 531.210938 363.316406 C 531.039062 363.5625 530.835938 363.789062 530.628906 364.011719 C 530.617188 363.523438 530.554688 363.046875 530.441406 362.574219 C 530.21875 361.667969 529.839844 360.800781 529.269531 360.082031 C 529.21875 360.011719 529.121094 359.980469 529.039062 360.015625 C 528.933594 360.054688 528.882812 360.171875 528.917969 360.28125 C 529.226562 361.09375 529.449219 361.90625 529.542969 362.734375 C 529.636719 363.566406 529.632812 364.394531 529.507812 365.207031 C 529.5 365.234375 529.511719 365.257812 529.511719 365.289062 L 472.714844 364.878906 L 470.226562 366.523438 L 418.199219 366.523438 C 418.328125 366.878906 418.460938 367.226562 418.59375 367.578125 L 692.828125 367.578125 L 692.828125 366.523438 Z M 261.328125 366.523438 L 261.328125 367.578125 L 379.5625 367.578125 C 386.730469 367.578125 388.789062 366.523438 388.789062 366.523438 C 389.722656 366.269531 390.613281 365.933594 391.460938 365.519531 C 397.53125 362.550781 401.183594 355.644531 399.453125 348.523438 L 379.21875 265.304688 C 377.582031 258.582031 371.566406 253.855469 364.652344 253.855469 L 251.609375 253.855469 C 241.898438 253.855469 234.75 262.949219 237.039062 272.382812 L 257.277344 355.601562 C 258.589844 361.007812 262.742188 365.113281 267.914062 366.523438 Z M 425.476562 383.027344 C 425.476562 383.027344 425.449219 383.21875 425.394531 383.554688 L 425.398438 383.554688 C 424.65625 387.96875 417.925781 419.628906 376.148438 419.628906 C 360.851562 419.628906 349.796875 417.101562 343.640625 415.199219 C 345.824219 427.699219 356.730469 437.207031 369.859375 437.207031 L 450.226562 437.207031 C 470.128906 437.207031 489.546875 428.917969 489.546875 428.917969 L 483.304688 465.894531 L 524.277344 465.894531 C 524.277344 465.894531 529.019531 428.917969 531.0625 404.113281 C 532.261719 389.585938 521.558594 384.925781 512.480469 383.554688 L 586.195312 383.554688 L 581.40625 424.75 L 596.558594 427.257812 L 601.636719 383.554688 L 656.191406 383.554688 L 662.535156 438.1875 L 678.28125 440.792969 L 671.636719 383.554688 L 692.828125 383.554688 L 692.828125 382.496094 L 425.203125 382.496094 C 425.375 382.835938 425.476562 383.027344 425.476562 383.027344 Z M 333.941406 382.496094 L 261.328125 382.496094 L 261.328125 383.554688 L 296.261719 383.554688 C 296.230469 383.710938 296.246094 383.875 296.199219 384.035156 L 296.058594 385.097656 C 295.953125 385.808594 295.914062 386.527344 295.84375 387.242188 L 295.726562 389.394531 L 295.667969 390.464844 L 295.636719 391.007812 C 295.652344 391.1875 295.519531 391.355469 295.859375 391.574219 C 296.25 391.4375 296.15625 391.246094 296.210938 391.074219 L 296.308594 390.539062 L 296.496094 389.480469 L 296.878906 387.359375 C 296.96875 386.648438 297.097656 385.941406 297.15625 385.226562 L 297.265625 384.15625 C 297.253906 383.953125 297.339844 383.761719 297.300781 383.554688 L 333.960938 383.554688 C 333.949219 383.203125 333.945312 382.851562 333.941406 382.496094 Z M 513.566406 153.015625 C 513.566406 152.433594 513.09375 151.957031 512.507812 151.957031 L 496.765625 151.957031 C 496.183594 151.957031 495.707031 152.433594 495.707031 153.015625 C 495.707031 153.601562 496.183594 154.070312 496.765625 154.070312 L 512.507812 154.070312 C 513.09375 154.070312 513.566406 153.601562 513.566406 153.015625 Z M 471.785156 153.019531 C 471.675781 153.882812 472.289062 154.578125 473.152344 154.578125 C 474.015625 154.578125 474.804688 153.882812 474.910156 153.019531 C 475.023438 152.15625 474.410156 151.453125 473.542969 151.453125 C 472.683594 151.453125 471.894531 152.15625 471.785156 153.019531 Z M 467.234375 154.578125 C 466.371094 154.578125 465.753906 153.882812 465.867188 153.019531 C 465.972656 152.15625 466.761719 151.453125 467.625 151.453125 C 468.488281 151.453125 469.101562 152.15625 468.992188 153.019531 C 468.886719 153.882812 468.097656 154.578125 467.234375 154.578125"/></g><g clip-path="url(#e)"><path fill="#777B85" d="M 615.308594 324.570312 L 606.792969 324.570312 L 600.578125 300.789062 L 595.359375 300.789062 L 601.578125 324.570312 L 512.476562 324.570312 C 507.980469 324.570312 504.332031 328.21875 504.332031 332.71875 L 623.457031 332.71875 C 623.457031 328.21875 619.8125 324.570312 615.308594 324.570312 Z M 327.160156 324.015625 L 309.605469 324.015625 C 308.484375 324.015625 307.535156 324.855469 307.40625 325.972656 L 293.191406 449.082031 C 293.042969 450.394531 294.074219 451.550781 295.394531 451.550781 L 312.953125 451.550781 C 314.074219 451.550781 315.023438 450.707031 315.152344 449.589844 L 329.363281 326.484375 C 329.515625 325.167969 328.488281 324.015625 327.160156 324.015625 Z M 588.835938 367.027344 L 595.960938 367.027344 L 612.179688 356.371094 L 621.605469 367.027344 L 626.867188 367.027344 L 613.824219 351.175781 Z M 686.777344 127.070312 L 679.796875 127.070312 C 687.5625 127.070312 693.601562 133.820312 692.746094 141.53125 L 676.367188 289.203125 C 675.636719 295.796875 670.0625 300.789062 663.417969 300.789062 L 670.398438 300.789062 C 677.039062 300.789062 682.617188 295.796875 683.347656 289.203125 L 699.726562 141.53125 C 700.582031 133.820312 694.539062 127.070312 686.777344 127.070312 Z M 513.566406 153.015625 C 513.566406 152.433594 513.09375 151.957031 512.507812 151.957031 L 496.765625 151.957031 C 496.183594 151.957031 495.707031 152.433594 495.707031 153.015625 C 495.707031 153.601562 496.183594 154.070312 496.765625 154.070312 L 512.507812 154.070312 C 513.09375 154.070312 513.566406 153.601562 513.566406 153.015625 Z M 473.542969 151.453125 C 472.683594 151.453125 471.894531 152.15625 471.785156 153.019531 C 471.675781 153.882812 472.289062 154.578125 473.152344 154.578125 C 474.015625 154.578125 474.804688 153.882812 474.910156 153.019531 C 475.023438 152.15625 474.410156 151.453125 473.542969 151.453125 Z M 467.625 151.453125 C 466.761719 151.453125 465.972656 152.15625 465.867188 153.019531 C 465.753906 153.882812 466.371094 154.578125 467.234375 154.578125 C 468.097656 154.578125 468.886719 153.882812 468.992188 153.019531 C 469.101562 152.15625 468.488281 151.453125 467.625 151.453125 Z M 480.835938 153.019531 C 480.726562 153.882812 479.9375 154.578125 479.074219 154.578125 C 478.210938 154.578125 477.601562 153.882812 477.707031 153.019531 C 477.816406 152.15625 478.605469 151.453125 479.46875 151.453125 C 480.332031 151.453125 480.941406 152.15625 480.835938 153.019531"/></g></svg>